<svg version="1.1" id="Layer_1" xmlns="http://www.w3.org/2000/svg" xmlns:xlink="http://www.w3.org/1999/xlink" x="0px" y="0px"
	 width="100%" viewBox="0 0 1260 358" enable-background="new 0 0 1260 358" xml:space="preserve">
<path fill="none" opacity="1.000000" stroke="none" 
	d="
M825.000000,359.000000 
	C550.000061,359.000000 275.500092,359.000000 1.000111,359.000000 
	C1.000074,239.666733 1.000074,120.333473 1.000037,1.000159 
	C420.999847,1.000106 840.999695,1.000106 1260.999634,1.000053 
	C1260.999756,120.333168 1260.999756,239.666336 1260.999878,358.999756 
	C1115.833374,359.000000 970.666687,359.000000 825.000000,359.000000 
M792.499817,310.342010 
	C885.661682,310.328583 978.823730,310.241241 1071.985352,310.373810 
	C1087.651611,310.396088 1099.086182,303.022369 1106.884521,290.529541 
	C1121.610107,266.939209 1135.468262,242.806442 1149.639038,218.870728 
	C1173.391724,178.750641 1196.942871,138.509720 1220.941040,98.537247 
	C1227.864014,87.006180 1218.852417,75.852798 1207.862183,75.871025 
	C1010.707214,76.197929 813.551575,76.136574 616.396118,76.062012 
	C599.038391,76.055443 586.153198,83.582596 577.430298,98.168892 
	C553.664246,137.910141 530.104736,177.775055 506.498352,217.611633 
	C492.483002,241.263031 478.525391,264.948669 464.562347,288.631012 
	C462.251404,292.550568 460.379883,296.608734 462.445587,301.260162 
	C465.459747,308.047302 468.124054,310.446899 477.517670,310.433624 
	C582.178223,310.285797 686.839050,310.341339 792.499817,310.342010 
M233.496567,170.987930 
	C224.426178,165.077484 214.213745,163.319962 203.677475,163.083954 
	C187.487259,162.721329 172.668167,166.715225 161.081192,178.660690 
	C148.126328,192.016373 144.691696,208.652176 146.877426,226.461838 
	C149.101654,244.585129 158.292404,258.652954 175.075607,266.355743 
	C192.224319,274.226318 210.077347,274.177032 227.857788,267.859772 
	C236.189758,264.899506 243.268616,260.087708 248.295319,254.660324 
	C242.503250,248.173523 237.109390,242.132706 231.727036,236.104782 
	C228.912659,238.169037 226.648880,240.143066 224.105560,241.643204 
	C209.319580,250.364410 189.548706,248.277954 182.226974,231.208115 
	C180.906586,228.129745 181.287384,226.468262 185.077347,226.475006 
	C207.065765,226.514175 229.054291,226.500641 251.042770,226.483765 
	C253.767746,226.481674 255.192307,227.463577 255.681519,230.437653 
	C257.907715,243.970871 264.553070,255.007538 276.078522,262.448395 
	C295.778870,275.166992 316.574493,275.030365 337.609436,266.060059 
	C346.322510,262.344391 352.973816,256.092255 357.316803,247.921478 
	C357.057098,247.252213 357.042633,247.018936 356.930023,246.952805 
	C350.254059,243.031296 343.419525,239.353104 336.952850,235.113663 
	C333.907867,233.117447 332.614929,233.864502 330.512390,236.335007 
	C323.522858,244.547852 311.728485,247.196884 302.588013,243.089264 
	C293.746429,239.115967 289.924927,231.655975 289.078491,222.654205 
	C288.014435,211.337479 289.370667,200.495300 300.117767,193.679993 
	C309.346436,187.827621 321.789459,190.007172 330.167633,198.302368 
	C331.304047,199.427521 333.656586,200.999435 334.423279,200.563950 
	C342.093903,196.206940 349.550201,191.472519 357.139526,186.799774 
	C348.739319,173.355896 336.526550,166.433884 322.004028,164.084808 
	C307.917755,161.806290 293.842651,162.609177 280.862244,169.731522 
	C267.932892,176.825836 260.212921,188.296646 254.857498,201.976196 
	C251.161499,188.999283 244.715424,178.749252 233.496567,170.987930 
M473.365265,256.495605 
	C473.361603,237.673965 473.726166,218.840881 473.142029,200.037277 
	C472.953491,193.967987 471.187042,187.540359 468.564087,182.027603 
	C459.306976,162.571716 434.412109,157.589630 415.232269,167.062256 
	C409.200073,170.041473 404.224213,175.159561 398.399658,179.575592 
	C398.399658,161.382690 398.399658,142.910858 398.399658,124.439156 
	C386.766510,124.439156 375.892456,124.439156 365.099792,124.439156 
	C365.099792,173.344513 365.099792,221.876266 365.099792,270.326233 
	C376.348633,270.326233 387.229218,270.326233 398.371063,270.326233 
	C398.371063,254.985580 398.235443,240.009949 398.444275,225.039124 
	C398.517883,219.762360 399.111511,214.439987 400.036102,209.239487 
	C401.727631,199.725052 410.155975,192.969238 420.352570,192.888550 
	C428.266815,192.825928 436.479187,195.651703 438.848236,207.855713 
	C439.382568,210.608276 439.723877,213.444916 439.736084,216.244659 
	C439.814270,234.208466 439.775970,252.172760 439.775970,270.320587 
	C451.114410,270.320587 462.136414,270.320587 473.365265,270.320587 
	C473.365265,265.795532 473.365265,261.644012 473.365265,256.495605 
M74.659157,250.499664 
	C74.659157,257.104340 74.659157,263.709015 74.659157,270.384338 
	C86.607063,270.384338 98.007408,270.384338 109.732887,270.384338 
	C109.732887,268.450714 109.732903,266.821655 109.732880,265.192596 
	C109.732483,232.058228 109.803139,198.923523 109.644669,165.789902 
	C109.624100,161.489777 110.703514,159.996002 115.212570,160.115784 
	C126.983910,160.428467 138.769058,160.221085 150.882339,160.221085 
	C150.882339,150.629303 150.882339,141.414413 150.882339,132.056152 
	C111.713631,132.056152 72.703888,132.056152 33.147522,132.056152 
	C33.147522,140.313080 33.312862,148.275314 33.071705,156.225204 
	C32.965031,159.741699 34.395729,160.333893 37.483742,160.286499 
	C47.971073,160.125610 58.470863,160.469635 68.948303,160.109238 
	C73.719749,159.945114 74.782631,161.599228 74.752907,166.081619 
	C74.568558,193.886627 74.659531,221.693466 74.659157,250.499664 
z"/>
<path fill="#030303" opacity="1.000000" stroke="none" 
	d="
M791.999756,310.342010 
	C686.839050,310.341339 582.178223,310.285797 477.517670,310.433624 
	C468.124054,310.446899 465.459747,308.047302 462.445587,301.260162 
	C460.379883,296.608734 462.251404,292.550568 464.562347,288.631012 
	C478.525391,264.948669 492.483002,241.263031 506.498352,217.611633 
	C530.104736,177.775055 553.664246,137.910141 577.430298,98.168892 
	C586.153198,83.582596 599.038391,76.055443 616.396118,76.062012 
	C813.551575,76.136574 1010.707214,76.197929 1207.862183,75.871025 
	C1218.852417,75.852798 1227.864014,87.006180 1220.941040,98.537247 
	C1196.942871,138.509720 1173.391724,178.750641 1149.639038,218.870728 
	C1135.468262,242.806442 1121.610107,266.939209 1106.884521,290.529541 
	C1099.086182,303.022369 1087.651611,310.396088 1071.985352,310.373810 
	C978.823730,310.241241 885.661682,310.328583 791.999756,310.342010 
M664.470276,149.077438 
	C644.344543,133.602036 621.983948,127.605453 596.797668,132.587997 
	C577.056763,136.493271 561.628296,146.905548 550.663086,163.431747 
	C540.332458,179.001587 537.625671,196.287720 540.977478,214.799957 
	C544.865662,236.274445 556.446533,252.152023 574.965393,262.900757 
	C592.645996,273.162964 611.560669,275.416229 631.460754,269.943298 
	C644.992432,266.221771 656.597473,259.368011 667.145081,250.341156 
	C669.810608,248.059921 669.923279,246.437347 667.398132,243.930359 
	C662.090149,238.660492 656.987061,233.177124 651.954407,227.640930 
	C650.197327,225.708084 648.992859,225.648376 647.036133,227.390640 
	C644.205994,229.910553 641.219788,232.333313 638.013428,234.339340 
	C621.291809,244.801041 602.275574,243.846863 589.332092,231.792938 
	C575.847168,219.234695 572.838318,203.433395 578.366882,186.717636 
	C583.895386,170.002106 596.318176,162.177841 610.431641,160.792877 
	C624.861755,159.376831 636.719666,165.607956 646.863342,175.485733 
	C647.853577,176.450012 648.925415,177.330521 649.980164,178.268448 
	C655.415894,171.811188 660.501587,165.893661 665.446289,159.860550 
	C670.340393,153.889313 671.283142,155.495468 664.470276,149.077438 
M794.694336,162.469971 
	C787.454468,163.349670 780.053711,163.569382 773.017334,165.284073 
	C765.071289,167.220459 757.438293,170.460464 749.700684,173.221863 
	C747.470398,174.017822 746.761353,175.429871 747.916931,177.876984 
	C750.299927,182.923630 752.441162,188.087601 754.576477,193.246918 
	C755.866760,196.364517 757.554626,197.038940 760.750671,195.454269 
	C770.681458,190.530472 781.132996,187.982269 792.368896,188.769440 
	C803.179077,189.526810 808.329224,194.511307 809.029358,206.315048 
	C805.060486,206.315048 801.120850,206.307526 797.181152,206.316437 
	C785.062622,206.343872 772.907410,205.683014 761.127075,209.687119 
	C750.031311,213.458527 742.370483,220.755310 740.512878,232.268066 
	C738.460632,244.987045 741.250793,256.787415 752.124268,265.278625 
	C766.682129,276.647003 794.776123,275.018158 806.771240,261.920685 
	C807.331299,261.309174 808.233276,261.010803 809.867188,260.033508 
	C809.867188,264.274872 809.867188,267.632965 809.867188,270.943604 
	C821.259949,270.943604 831.970032,270.943604 842.831909,270.943604 
	C842.831909,245.233566 843.296753,219.925980 842.584045,194.651611 
	C842.328796,185.598343 837.354858,177.840652 829.838318,171.957504 
	C819.657593,163.989059 807.809448,162.723633 794.694336,162.469971 
M1038.741455,262.277740 
	C1042.021729,259.564240 1045.301880,256.850739 1049.555298,253.332169 
	C1043.508301,247.607681 1037.971313,242.210129 1032.175171,237.107010 
	C1031.558716,236.564285 1029.097778,237.339844 1028.046753,238.189499 
	C1019.051941,245.460922 1008.890686,247.571091 997.686768,245.494720 
	C989.509827,243.979309 980.870972,234.310257 981.211670,226.690857 
	C982.832642,226.690857 984.472351,226.690826 986.112000,226.690857 
	C1007.596802,226.691177 1029.082153,226.607925 1050.565796,226.768021 
	C1054.485352,226.797226 1056.123657,225.614639 1055.681152,221.652435 
	C1055.201904,217.361206 1054.885986,213.051361 1054.524536,208.747482 
	C1052.628662,186.176544 1036.831787,167.898422 1016.949280,164.545654 
	C1001.364075,161.917557 986.167725,161.757828 972.017456,169.653595 
	C953.060852,180.231277 945.261047,197.225174 945.427612,218.368347 
	C945.559204,235.073105 950.919861,249.380478 964.115356,260.434662 
	C981.958435,275.382355 1017.822998,276.242828 1038.741455,262.277740 
M848.993103,265.299591 
	C848.993103,267.099274 848.993103,268.898956 848.993103,271.006714 
	C881.686157,271.006714 913.888611,271.006714 946.574158,271.006714 
	C946.574158,263.865967 946.313477,257.062103 946.671021,250.290894 
	C946.888428,246.173965 945.369568,245.176315 941.557129,245.217682 
	C926.737854,245.378479 911.915710,245.293854 897.094666,245.271057 
	C895.880554,245.269180 894.666748,245.044907 892.888733,244.867783 
	C893.879883,243.376907 894.402893,242.366623 895.128296,241.532227 
	C908.185730,226.512558 920.879150,211.149323 934.495911,196.653809 
	C942.138550,188.517899 946.747192,180.108154 944.747986,168.823746 
	C944.719360,168.662323 944.728149,168.489288 944.747864,168.325073 
	C945.158264,164.909958 943.731628,163.579666 940.224670,163.590149 
	C911.748474,163.675232 883.271790,163.667923 854.795593,163.586044 
	C851.906311,163.577744 850.965637,164.715500 851.000610,167.409897 
	C851.078369,173.403915 851.208862,179.407425 850.956665,185.391861 
	C850.796326,189.195511 852.242065,190.203918 855.895142,190.149689 
	C868.881592,189.956940 881.872559,190.072769 894.861816,190.071747 
	C896.413818,190.071625 897.965759,190.071716 900.935303,190.071716 
	C898.830139,192.638367 897.742554,194.030579 896.586670,195.363510 
	C883.875427,210.021957 871.634705,225.131287 858.240051,239.136841 
	C851.096008,246.606705 847.437073,254.233749 848.993103,265.299591 
M709.308044,261.476746 
	C709.306580,247.648041 709.160706,233.816833 709.399292,219.992264 
	C709.463684,216.261932 710.080688,212.295807 711.505127,208.880447 
	C715.722290,198.768875 724.340881,194.804443 734.637390,193.578857 
	C737.810730,193.201111 742.536926,193.715027 743.743408,191.926315 
	C745.393921,189.479248 744.433105,185.223450 744.463989,181.741806 
	C744.519348,175.502045 744.479614,169.261444 744.479614,162.898743 
	C729.307800,162.238541 718.616577,168.702881 709.859070,179.759445 
	C709.310486,175.607239 709.225647,171.840103 709.337097,168.078796 
	C709.427673,165.018753 708.482483,163.524826 705.048218,163.602188 
	C696.555725,163.793518 688.053406,163.775986 679.560242,163.597229 
	C676.082703,163.524017 674.832825,164.800751 674.840210,168.243973 
	C674.911255,201.232773 674.929260,234.221924 674.819092,267.210510 
	C674.807617,270.660706 676.153503,271.469910 679.252869,271.403442 
	C686.247314,271.253357 693.247192,271.352570 700.244812,271.352386 
	C709.309143,271.352142 709.309143,271.352997 709.308044,261.476746 
z"/>
<path fill="#050505" opacity="1.000000" stroke="none" 
	d="
M233.835449,171.120941 
	C244.715424,178.749252 251.161499,188.999283 254.857498,201.976196 
	C260.212921,188.296646 267.932892,176.825836 280.862244,169.731522 
	C293.842651,162.609177 307.917755,161.806290 322.004028,164.084808 
	C336.526550,166.433884 348.739319,173.355896 357.139526,186.799774 
	C349.550201,191.472519 342.093903,196.206940 334.423279,200.563950 
	C333.656586,200.999435 331.304047,199.427521 330.167633,198.302368 
	C321.789459,190.007172 309.346436,187.827621 300.117767,193.679993 
	C289.370667,200.495300 288.014435,211.337479 289.078491,222.654205 
	C289.924927,231.655975 293.746429,239.115967 302.588013,243.089264 
	C311.728485,247.196884 323.522858,244.547852 330.512390,236.335007 
	C332.614929,233.864502 333.907867,233.117447 336.952850,235.113663 
	C343.419525,239.353104 350.254059,243.031296 356.930023,246.952805 
	C357.042633,247.018936 357.057098,247.252213 357.316803,247.921478 
	C352.973816,256.092255 346.322510,262.344391 337.609436,266.060059 
	C316.574493,275.030365 295.778870,275.166992 276.078522,262.448395 
	C264.553070,255.007538 257.907715,243.970871 255.681519,230.437653 
	C255.192307,227.463577 253.767746,226.481674 251.042770,226.483765 
	C229.054291,226.500641 207.065765,226.514175 185.077347,226.475006 
	C181.287384,226.468262 180.906586,228.129745 182.226974,231.208115 
	C189.548706,248.277954 209.319580,250.364410 224.105560,241.643204 
	C226.648880,240.143066 228.912659,238.169037 231.727036,236.104782 
	C237.109390,242.132706 242.503250,248.173523 248.295319,254.660324 
	C243.268616,260.087708 236.189758,264.899506 227.857788,267.859772 
	C210.077347,274.177032 192.224319,274.226318 175.075607,266.355743 
	C158.292404,258.652954 149.101654,244.585129 146.877426,226.461838 
	C144.691696,208.652176 148.126328,192.016373 161.081192,178.660690 
	C172.668167,166.715225 187.487259,162.721329 203.677475,163.083954 
	C214.213745,163.319962 224.426178,165.077484 233.835449,171.120941 
M189.585205,208.701309 
	C200.671814,208.701309 211.758408,208.701309 222.765137,208.701309 
	C224.295898,198.324661 216.868713,188.452911 206.273712,186.620285 
	C195.754227,184.800751 182.594238,191.327194 180.326782,208.701324 
	C183.149185,208.701324 185.884293,208.701324 189.585205,208.701309 
z"/>
<path fill="#030303" opacity="1.000000" stroke="none" 
	d="
M473.365265,256.994049 
	C473.365265,261.644012 473.365265,265.795532 473.365265,270.320587 
	C462.136414,270.320587 451.114410,270.320587 439.775970,270.320587 
	C439.775970,252.172760 439.814270,234.208466 439.736084,216.244659 
	C439.723877,213.444916 439.382568,210.608276 438.848236,207.855713 
	C436.479187,195.651703 428.266815,192.825928 420.352570,192.888550 
	C410.155975,192.969238 401.727631,199.725052 400.036102,209.239487 
	C399.111511,214.439987 398.517883,219.762360 398.444275,225.039124 
	C398.235443,240.009949 398.371063,254.985580 398.371063,270.326233 
	C387.229218,270.326233 376.348633,270.326233 365.099792,270.326233 
	C365.099792,221.876266 365.099792,173.344513 365.099792,124.439156 
	C375.892456,124.439156 386.766510,124.439156 398.399658,124.439156 
	C398.399658,142.910858 398.399658,161.382690 398.399658,179.575592 
	C404.224213,175.159561 409.200073,170.041473 415.232269,167.062256 
	C434.412109,157.589630 459.306976,162.571716 468.564087,182.027603 
	C471.187042,187.540359 472.953491,193.967987 473.142029,200.037277 
	C473.726166,218.840881 473.361603,237.673965 473.365265,256.994049 
z"/>
<path fill="#040404" opacity="1.000000" stroke="none" 
	d="
M74.659142,249.999680 
	C74.659531,221.693466 74.568558,193.886627 74.752907,166.081619 
	C74.782631,161.599228 73.719749,159.945114 68.948303,160.109238 
	C58.470863,160.469635 47.971073,160.125610 37.483742,160.286499 
	C34.395729,160.333893 32.965031,159.741699 33.071705,156.225204 
	C33.312862,148.275314 33.147522,140.313080 33.147522,132.056152 
	C72.703888,132.056152 111.713631,132.056152 150.882339,132.056152 
	C150.882339,141.414413 150.882339,150.629303 150.882339,160.221085 
	C138.769058,160.221085 126.983910,160.428467 115.212570,160.115784 
	C110.703514,159.996002 109.624100,161.489777 109.644669,165.789902 
	C109.803139,198.923523 109.732483,232.058228 109.732880,265.192596 
	C109.732903,266.821655 109.732887,268.450714 109.732887,270.384338 
	C98.007408,270.384338 86.607063,270.384338 74.659157,270.384338 
	C74.659157,263.709015 74.659157,257.104340 74.659142,249.999680 
z"/>
<path fill="#F9F9F9" opacity="1.000000" stroke="none" 
	d="
M664.770508,149.283813 
	C671.283142,155.495468 670.340393,153.889313 665.446289,159.860550 
	C660.501587,165.893661 655.415894,171.811188 649.980164,178.268448 
	C648.925415,177.330521 647.853577,176.450012 646.863342,175.485733 
	C636.719666,165.607956 624.861755,159.376831 610.431641,160.792877 
	C596.318176,162.177841 583.895386,170.002106 578.366882,186.717636 
	C572.838318,203.433395 575.847168,219.234695 589.332092,231.792938 
	C602.275574,243.846863 621.291809,244.801041 638.013428,234.339340 
	C641.219788,232.333313 644.205994,229.910553 647.036133,227.390640 
	C648.992859,225.648376 650.197327,225.708084 651.954407,227.640930 
	C656.987061,233.177124 662.090149,238.660492 667.398132,243.930359 
	C669.923279,246.437347 669.810608,248.059921 667.145081,250.341156 
	C656.597473,259.368011 644.992432,266.221771 631.460754,269.943298 
	C611.560669,275.416229 592.645996,273.162964 574.965393,262.900757 
	C556.446533,252.152023 544.865662,236.274445 540.977478,214.799957 
	C537.625671,196.287720 540.332458,179.001587 550.663086,163.431747 
	C561.628296,146.905548 577.056763,136.493271 596.797668,132.587997 
	C621.983948,127.605453 644.344543,133.602036 664.770508,149.283813 
z"/>
<path fill="#F9F9F9" opacity="1.000000" stroke="none" 
	d="
M795.146118,162.449890 
	C807.809448,162.723633 819.657593,163.989059 829.838318,171.957504 
	C837.354858,177.840652 842.328796,185.598343 842.584045,194.651611 
	C843.296753,219.925980 842.831909,245.233566 842.831909,270.943604 
	C831.970032,270.943604 821.259949,270.943604 809.867188,270.943604 
	C809.867188,267.632965 809.867188,264.274872 809.867188,260.033508 
	C808.233276,261.010803 807.331299,261.309174 806.771240,261.920685 
	C794.776123,275.018158 766.682129,276.647003 752.124268,265.278625 
	C741.250793,256.787415 738.460632,244.987045 740.512878,232.268066 
	C742.370483,220.755310 750.031311,213.458527 761.127075,209.687119 
	C772.907410,205.683014 785.062622,206.343872 797.181152,206.316437 
	C801.120850,206.307526 805.060486,206.315048 809.029358,206.315048 
	C808.329224,194.511307 803.179077,189.526810 792.368896,188.769440 
	C781.132996,187.982269 770.681458,190.530472 760.750671,195.454269 
	C757.554626,197.038940 755.866760,196.364517 754.576477,193.246918 
	C752.441162,188.087601 750.299927,182.923630 747.916931,177.876984 
	C746.761353,175.429871 747.470398,174.017822 749.700684,173.221863 
	C757.438293,170.460464 765.071289,167.220459 773.017334,165.284073 
	C780.053711,163.569382 787.454468,163.349670 795.146118,162.449890 
M772.915649,233.521805 
	C771.962463,242.202682 774.021179,246.274109 781.407349,248.568665 
	C784.315735,249.472153 787.724670,249.552917 790.767273,249.092941 
	C801.380005,247.488602 810.431213,241.113922 809.304688,228.890976 
	C809.177307,227.508850 807.318909,225.220047 806.184875,225.171234 
	C799.223755,224.871689 792.191711,224.614700 785.280273,225.308838 
	C780.372192,225.801758 774.802368,226.505463 772.915649,233.521805 
z"/>
<path fill="#F8F8F8" opacity="1.000000" stroke="none" 
	d="
M1038.407227,262.427185 
	C1017.822998,276.242828 981.958435,275.382355 964.115356,260.434662 
	C950.919861,249.380478 945.559204,235.073105 945.427612,218.368347 
	C945.261047,197.225174 953.060852,180.231277 972.017456,169.653595 
	C986.167725,161.757828 1001.364075,161.917557 1016.949280,164.545654 
	C1036.831787,167.898422 1052.628662,186.176544 1054.524536,208.747482 
	C1054.885986,213.051361 1055.201904,217.361206 1055.681152,221.652435 
	C1056.123657,225.614639 1054.485352,226.797226 1050.565796,226.768021 
	C1029.082153,226.607925 1007.596802,226.691177 986.112000,226.690857 
	C984.472351,226.690826 982.832642,226.690857 981.211670,226.690857 
	C980.870972,234.310257 989.509827,243.979309 997.686768,245.494720 
	C1008.890686,247.571091 1019.051941,245.460922 1028.046753,238.189499 
	C1029.097778,237.339844 1031.558716,236.564285 1032.175171,237.107010 
	C1037.971313,242.210129 1043.508301,247.607681 1049.555298,253.332169 
	C1045.301880,256.850739 1042.021729,259.564240 1038.407227,262.427185 
M1013.186462,190.141556 
	C998.744507,181.506119 981.159973,190.621765 980.150635,207.679657 
	C993.982178,207.679657 1007.812134,207.679657 1021.656067,207.679657 
	C1021.157471,198.423737 1019.839111,195.620132 1013.186462,190.141556 
z"/>
<path fill="#F8F8F8" opacity="1.000000" stroke="none" 
	d="
M848.993164,264.825073 
	C847.437073,254.233749 851.096008,246.606705 858.240051,239.136841 
	C871.634705,225.131287 883.875427,210.021957 896.586670,195.363510 
	C897.742554,194.030579 898.830139,192.638367 900.935303,190.071716 
	C897.965759,190.071716 896.413818,190.071625 894.861816,190.071747 
	C881.872559,190.072769 868.881592,189.956940 855.895142,190.149689 
	C852.242065,190.203918 850.796326,189.195511 850.956665,185.391861 
	C851.208862,179.407425 851.078369,173.403915 851.000610,167.409897 
	C850.965637,164.715500 851.906311,163.577744 854.795593,163.586044 
	C883.271790,163.667923 911.748474,163.675232 940.224670,163.590149 
	C943.731628,163.579666 945.158264,164.909958 944.747864,168.325073 
	C944.728149,168.489288 944.719360,168.662323 944.747986,168.823746 
	C946.747192,180.108154 942.138550,188.517899 934.495911,196.653809 
	C920.879150,211.149323 908.185730,226.512558 895.128296,241.532227 
	C894.402893,242.366623 893.879883,243.376907 892.888733,244.867783 
	C894.666748,245.044907 895.880554,245.269180 897.094666,245.271057 
	C911.915710,245.293854 926.737854,245.378479 941.557129,245.217682 
	C945.369568,245.176315 946.888428,246.173965 946.671021,250.290894 
	C946.313477,257.062103 946.574158,263.865967 946.574158,271.006714 
	C913.888611,271.006714 881.686157,271.006714 848.993103,271.006714 
	C848.993103,268.898956 848.993103,267.099274 848.993164,264.825073 
z"/>
<path fill="#F9F9F9" opacity="1.000000" stroke="none" 
	d="
M709.308105,261.973755 
	C709.309143,271.352997 709.309143,271.352142 700.244812,271.352386 
	C693.247192,271.352570 686.247314,271.253357 679.252869,271.403442 
	C676.153503,271.469910 674.807617,270.660706 674.819092,267.210510 
	C674.929260,234.221924 674.911255,201.232773 674.840210,168.243973 
	C674.832825,164.800751 676.082703,163.524017 679.560242,163.597229 
	C688.053406,163.775986 696.555725,163.793518 705.048218,163.602188 
	C708.482483,163.524826 709.427673,165.018753 709.337097,168.078796 
	C709.225647,171.840103 709.310486,175.607239 709.859070,179.759445 
	C718.616577,168.702881 729.307800,162.238541 744.479614,162.898743 
	C744.479614,169.261444 744.519348,175.502045 744.463989,181.741806 
	C744.433105,185.223450 745.393921,189.479248 743.743408,191.926315 
	C742.536926,193.715027 737.810730,193.201111 734.637390,193.578857 
	C724.340881,194.804443 715.722290,198.768875 711.505127,208.880447 
	C710.080688,212.295807 709.463684,216.261932 709.399292,219.992264 
	C709.160706,233.816833 709.306580,247.648041 709.308105,261.973755 
z"/>
<path fill="#F1F1F1" opacity="1.000000" stroke="none" 
	d="
M189.102295,208.701324 
	C185.884293,208.701324 183.149185,208.701324 180.326782,208.701324 
	C182.594238,191.327194 195.754227,184.800751 206.273712,186.620285 
	C216.868713,188.452911 224.295898,198.324661 222.765137,208.701309 
	C211.758408,208.701309 200.671814,208.701309 189.102295,208.701324 
z"/>
<path fill="#0A0A0A" opacity="1.000000" stroke="none" 
	d="
M772.978149,233.139252 
	C774.802368,226.505463 780.372192,225.801758 785.280273,225.308838 
	C792.191711,224.614700 799.223755,224.871689 806.184875,225.171234 
	C807.318909,225.220047 809.177307,227.508850 809.304688,228.890976 
	C810.431213,241.113922 801.380005,247.488602 790.767273,249.092941 
	C787.724670,249.552917 784.315735,249.472153 781.407349,248.568665 
	C774.021179,246.274109 771.962463,242.202682 772.978149,233.139252 
z"/>
<path fill="#090909" opacity="1.000000" stroke="none" 
	d="
M1013.487549,190.358246 
	C1019.839111,195.620132 1021.157471,198.423737 1021.656067,207.679657 
	C1007.812134,207.679657 993.982178,207.679657 980.150635,207.679657 
	C981.159973,190.621765 998.744507,181.506119 1013.487549,190.358246 
z"/>
</svg>