<svg version="1.1" id="Layer_1" xmlns="http://www.w3.org/2000/svg" xmlns:xlink="http://www.w3.org/1999/xlink" x="0px" y="0px"
	 width="100%" viewBox="0 0 1228 278" enable-background="new 0 0 1228 278" xml:space="preserve">
<path fill="none" opacity="1.000000" stroke="none" 
	d="
M811.000000,279.000000 
	C540.666687,279.000000 270.833344,279.000000 1.000000,279.000000 
	C1.000000,186.333328 1.000000,93.666664 1.000000,1.000000 
	C410.333344,1.000000 819.666687,1.000000 1229.000000,1.000000 
	C1229.000000,93.666664 1229.000000,186.333328 1229.000000,279.000000 
	C1089.833374,279.000000 950.666687,279.000000 811.000000,279.000000 
M1087.918701,247.911545 
	C1087.918701,247.911545 1087.819580,247.791687 1088.477051,247.697815 
	C1088.894897,246.726074 1089.312744,245.754349 1090.198853,244.324631 
	C1091.185547,242.590408 1092.172241,240.856186 1093.822510,239.022690 
	C1094.077515,238.252380 1094.332520,237.482086 1094.742065,236.323898 
	C1094.742065,236.323898 1094.979126,235.980072 1095.641602,235.895065 
	C1095.909180,235.144760 1096.176758,234.394455 1096.784912,233.038101 
	C1098.409790,230.359833 1100.034790,227.681580 1102.259766,224.648010 
	C1102.708740,223.670471 1103.157715,222.692947 1103.769653,221.336960 
	C1103.769653,221.336960 1103.983887,220.984985 1104.645142,220.888168 
	C1104.859741,220.130341 1105.074341,219.372513 1105.525146,218.195374 
	C1105.525146,218.195374 1105.833740,217.826065 1106.492065,217.705765 
	C1106.872803,216.713531 1107.253418,215.721298 1108.064331,214.294342 
	C1108.437500,213.574478 1108.810669,212.854614 1109.827759,212.004028 
	C1110.094238,211.247070 1110.360718,210.490128 1110.763184,209.338501 
	C1110.763184,209.338501 1110.981934,208.983093 1111.645264,208.881088 
	C1111.922363,208.141891 1112.199463,207.402710 1112.765137,206.043304 
	C1114.107910,203.950958 1115.450806,201.858612 1117.503296,199.867447 
	C1118.215820,198.156326 1118.928345,196.445190 1119.775879,194.336365 
	C1119.775879,194.336365 1119.950928,193.954544 1120.617676,193.844345 
	C1120.873901,193.107269 1121.130127,192.370193 1121.666748,191.129623 
	C1121.918701,190.840134 1122.170654,190.550659 1123.028320,190.064621 
	C1123.238403,189.286682 1123.448486,188.508743 1124.059692,187.271866 
	C1124.435791,186.559952 1124.811890,185.848022 1125.821777,184.997543 
	C1126.114258,184.255432 1126.406738,183.513321 1126.829834,182.382202 
	C1126.829834,182.382202 1127.022949,182.020157 1127.678955,181.896439 
	C1127.959961,181.159912 1128.240967,180.423401 1128.656616,179.258560 
	C1128.656616,179.258560 1128.870850,178.863953 1129.518799,178.758301 
	C1129.823975,178.050888 1130.129150,177.343491 1130.767456,176.025360 
	C1132.209595,173.709473 1133.651733,171.393585 1135.764038,168.959641 
	C1136.354980,167.536499 1136.945923,166.113342 1137.822754,164.046814 
	C1139.584717,161.059708 1141.346680,158.072586 1143.753662,154.944763 
	C1144.032471,154.201904 1144.311401,153.459045 1144.714355,152.300629 
	C1144.714355,152.300629 1144.916382,151.916916 1145.567627,151.797867 
	C1145.860840,151.082748 1146.154053,150.367630 1146.683350,149.034653 
	C1147.258179,148.103668 1147.833008,147.172684 1149.010620,146.047363 
	C1149.285889,145.323303 1149.561157,144.599243 1149.959473,143.887192 
	C1149.959473,143.887192 1149.848877,143.832184 1150.514404,143.642899 
	C1150.911499,142.685776 1151.308472,141.728653 1151.827637,140.371933 
	C1151.827637,140.371933 1151.981812,139.983551 1152.615967,139.841904 
	C1152.935425,139.129578 1153.254883,138.417267 1153.780884,137.074814 
	C1154.594116,135.771362 1155.407349,134.467926 1156.925903,133.077240 
	C1158.154907,130.627716 1159.383911,128.178192 1160.827881,125.072357 
	C1162.018188,123.125893 1163.208618,121.179420 1164.980713,118.931038 
	C1165.889893,117.211540 1166.799072,115.492050 1167.924927,113.118477 
	C1169.133179,111.172417 1170.341431,109.226357 1172.093872,106.937981 
	C1172.550415,105.842270 1173.006958,104.746552 1173.681763,103.286346 
	C1173.681763,103.286346 1173.959106,102.964455 1174.613892,102.826553 
	C1175.013672,101.829697 1175.413574,100.832840 1176.227783,99.364914 
	C1176.875488,98.286034 1177.523193,97.207153 1178.834961,95.972282 
	C1179.409790,94.547722 1179.984497,93.123161 1180.721436,91.309967 
	C1180.721436,91.309967 1180.965210,90.966637 1181.626465,90.885742 
	C1181.886108,90.134392 1182.145630,89.383049 1182.749390,88.024300 
	C1189.878906,75.921288 1197.139038,63.892712 1204.095093,51.690842 
	C1209.285767,42.585716 1206.723999,34.936943 1197.427002,30.380026 
	C1196.867920,30.105961 1196.451416,29.540409 1196.119263,28.437410 
	C1194.532593,27.957472 1192.945923,27.057621 1191.359131,27.057117 
	C993.213440,26.994232 795.067749,26.997578 596.922058,26.997984 
	C595.588867,26.997988 594.217957,26.829144 592.943665,27.104656 
	C592.515503,27.197233 592.333313,28.427456 591.597107,29.732700 
	C576.896362,32.350174 566.383728,40.819801 558.916321,53.374725 
	C548.801025,70.381516 538.828552,87.473160 528.762024,104.509064 
	C513.325012,130.633545 497.905121,156.768341 482.387604,182.844971 
	C474.886597,195.450180 467.179810,207.932938 459.268799,219.329987 
	C459.180023,211.181076 459.040222,203.032318 459.014038,194.883209 
	C458.971222,181.571274 459.035828,168.258850 458.943604,154.947418 
	C458.935638,153.796402 460.304443,151.076416 456.278229,151.643204 
	C454.981049,147.727859 454.015717,143.663330 452.333344,139.921143 
	C440.605988,113.835350 401.049164,114.276466 385.435638,132.989655 
	C385.084076,133.126526 384.732483,133.263397 384.145813,132.438553 
	C384.098541,117.239113 384.109528,102.038933 383.919312,86.841286 
	C383.898926,85.213860 382.705780,83.601120 381.976105,82.208168 
	C381.976105,82.208168 381.737732,82.176079 381.808411,81.376518 
	C378.164246,81.001984 374.518188,80.298782 370.876343,80.320122 
	C362.856262,80.367081 354.838348,80.779732 346.051758,81.247002 
	C345.700775,82.271011 345.043884,83.294685 345.042786,84.319077 
	C344.992065,130.973755 344.982178,177.628525 345.088104,224.283035 
	C345.090942,225.537155 346.419922,226.788284 347.176514,228.168182 
	C347.176514,228.168182 347.052795,228.223282 347.404419,229.059250 
	C347.958923,229.363266 348.511719,229.928940 349.068146,229.932495 
	C359.159576,229.997162 369.251892,230.037888 379.342346,229.928528 
	C380.217499,229.919052 381.080902,228.824326 381.845520,228.146942 
	C381.845520,228.146942 381.910767,228.028046 382.708649,227.804474 
	C383.140289,226.511444 383.940094,225.220490 383.947418,223.925034 
	C384.034515,208.543930 384.039917,193.161926 383.953430,177.780792 
	C383.943573,176.026367 383.244904,174.275803 382.686279,171.787720 
	C382.940247,169.743881 383.194183,167.700058 383.538361,165.102982 
	C383.606598,164.735657 383.674835,164.368332 384.353119,163.661774 
	C384.720978,162.657028 385.088837,161.652267 385.759796,160.059814 
	C386.822266,158.689713 387.884705,157.319611 389.686462,155.796844 
	C391.132782,155.059296 392.505493,154.038223 394.039856,153.639755 
	C397.933044,152.628738 401.888947,151.306381 405.838440,151.241287 
	C408.954895,151.189941 412.099121,152.823227 415.633179,154.134277 
	C416.193573,154.674683 416.753937,155.215088 417.264832,156.419250 
	C418.319550,157.710358 419.374298,159.001465 420.596771,160.857681 
	C420.682983,161.240921 420.769226,161.624161 420.420074,162.424438 
	C420.998413,163.614807 421.576752,164.805176 422.244232,166.796448 
	C422.179565,167.858032 422.114899,168.919632 421.415741,170.538712 
	C421.275604,171.180481 421.014008,171.822083 421.013031,172.464066 
	C420.987640,189.438080 420.966949,206.412216 421.033539,223.385986 
	C421.038269,224.585678 421.720154,225.782730 422.416168,227.421341 
	C422.739899,227.860474 423.063629,228.299606 422.978394,229.247742 
	C424.104858,229.511765 425.229065,229.992661 426.358124,230.004318 
	C433.267578,230.075638 440.179626,230.123642 447.087524,229.998108 
	C449.676117,229.951096 451.248199,230.605576 451.122742,234.067657 
	C451.175629,234.450882 451.228516,234.834106 451.053223,235.866287 
	C449.850952,237.816666 448.648651,239.767029 446.867615,242.079163 
	C442.735077,247.587997 442.698242,253.191925 447.156128,258.701843 
	C448.343323,259.969299 449.530518,261.236725 450.920349,262.973938 
	C451.290741,263.537506 451.661102,264.101074 452.459198,265.407501 
	C454.581604,265.605804 456.703949,265.977539 458.826385,265.977814 
	C655.583984,266.003967 852.341614,266.001648 1049.099243,266.001312 
	C1053.264282,266.001312 1057.435669,266.133179 1061.590942,265.931244 
	C1063.038086,265.860870 1064.445312,264.966766 1065.949463,263.879272 
	C1067.609375,262.893890 1069.269287,261.908508 1071.341309,260.784485 
	C1071.341309,260.784485 1071.762207,260.675049 1072.499146,260.776611 
	C1075.059937,258.939606 1077.620605,257.102600 1080.690308,254.936646 
	C1081.475830,254.305237 1082.261230,253.673828 1083.735229,253.102722 
	C1084.173096,252.420135 1084.610840,251.737534 1085.338135,250.675415 
	C1085.514160,250.409607 1085.709229,250.158493 1086.569336,249.859344 
	C1086.974854,249.183258 1087.380249,248.507172 1087.918701,247.911545 
M93.375595,228.718842 
	C93.621811,228.504929 93.833321,228.260941 94.627213,227.422455 
	C94.755638,225.616074 94.994804,223.809753 94.996117,222.003281 
	C95.021286,187.309219 95.018532,152.615143 95.919411,117.636772 
	C102.084587,117.621544 108.251167,117.682915 114.414574,117.570557 
	C121.213074,117.446632 128.008667,117.163284 135.635086,116.851044 
	C136.074753,116.230919 136.889496,115.615326 136.897064,114.989967 
	C136.990402,107.281075 137.025284,99.569733 136.892868,91.862167 
	C136.877167,90.948395 135.779953,90.053200 134.600266,88.496750 
	C134.134781,88.336311 133.669434,88.035858 133.203781,88.035362 
	C94.965080,87.994133 56.726303,87.953873 18.487934,88.060143 
	C17.288624,88.063469 16.093567,89.597282 14.532181,91.081955 
	C14.370382,99.171524 14.175828,107.260849 14.117392,115.351166 
	C14.113312,115.915810 15.118485,116.487732 16.484940,117.306213 
	C18.452421,117.401268 20.419159,117.557152 22.387510,117.581253 
	C33.251446,117.714256 44.115768,117.815109 54.997372,118.873703 
	C54.997448,153.464157 54.967918,188.054688 55.082386,222.644775 
	C55.088295,224.430939 56.325607,226.213058 57.118488,228.126358 
	C57.118488,228.126358 57.029900,228.285995 57.408253,229.106461 
	C58.137043,229.405228 58.864307,229.959854 59.594856,229.964218 
	C69.844475,230.025482 80.094696,230.036331 90.344223,229.972458 
	C91.227119,229.966949 92.106171,229.345520 93.375595,228.718842 
M305.983917,150.484894 
	C309.565674,153.308426 313.147430,156.131973 316.420135,158.711884 
	C323.086517,154.646774 330.057861,150.265472 337.169830,146.125687 
	C339.859894,144.559845 340.361053,142.989334 338.277466,140.709183 
	C335.926208,138.136093 333.759613,135.328339 331.106628,133.107803 
	C315.317474,119.892303 296.994873,117.648819 277.631531,121.827454 
	C258.006348,126.062607 245.397446,138.284286 239.468765,157.456223 
	C239.242676,158.187378 238.383835,158.722855 237.573792,159.622925 
	C233.613510,143.859375 225.724121,131.799271 211.072754,124.927139 
	C200.630707,120.029366 189.553467,119.661316 178.377197,120.357063 
	C163.609222,121.276413 151.037308,127.099945 141.521332,138.533173 
	C129.918594,152.473587 127.607590,168.674576 130.177658,186.227295 
	C133.227905,207.059586 151.998657,227.286804 172.696747,228.915863 
	C183.187607,229.741562 193.995514,230.640259 204.721695,227.272064 
	C214.335068,224.253281 222.724396,219.881180 230.092621,213.166702 
	C232.232849,211.216370 232.221863,209.881271 230.130539,207.928421 
	C225.886963,203.965866 221.746826,199.880844 217.752991,195.667206 
	C215.596405,193.391907 214.043900,193.238754 211.549469,195.399704 
	C203.222427,202.613464 193.406006,204.458664 182.667358,202.914978 
	C174.610184,201.756760 163.934799,191.730362 165.251373,184.160034 
	C165.709549,184.054764 166.189713,183.848221 166.670059,183.847870 
	C189.163895,183.831238 211.657883,183.870987 234.151382,183.782135 
	C236.900192,183.771286 237.805252,184.691788 238.208359,187.408081 
	C238.689575,190.650635 239.738861,193.881317 241.007996,196.922714 
	C249.000122,216.075165 263.381927,226.709686 284.050018,228.789108 
	C295.705078,229.961716 307.191101,229.902390 318.121338,224.727554 
	C326.678802,220.676086 334.375824,215.632278 339.165863,207.172806 
	C339.720886,206.192612 339.564240,203.716736 338.893005,203.302429 
	C331.468994,198.719849 323.877960,194.407837 316.195892,189.943451 
	C314.925446,191.513428 313.889160,192.775223 312.872894,194.052902 
	C304.918854,204.052795 281.988983,206.264359 275.237671,189.799103 
	C272.966187,184.259460 273.599243,177.556046 272.726013,171.409912 
	C271.178070,160.515091 281.478302,147.209579 294.829865,147.949661 
	C298.385803,148.146774 301.886078,149.348434 305.983917,150.484894 
z"/>
<path fill="#FCFCFC" opacity="1.000000" stroke="none" 
	d="
M1148.407715,146.241699 
	C1147.833008,147.172684 1147.258179,148.103668 1146.299561,149.467407 
	C1145.582764,150.572433 1145.249634,151.244675 1144.916382,151.916931 
	C1144.916382,151.916916 1144.714355,152.300629 1144.370850,152.630127 
	C1143.721191,153.668243 1143.414795,154.376846 1143.108521,155.085480 
	C1141.346680,158.072586 1139.584717,161.059708 1137.380615,164.513733 
	C1136.323730,166.346329 1135.708862,167.712021 1135.093994,169.077698 
	C1133.651733,171.393585 1132.209595,173.709473 1130.331177,176.444656 
	C1129.553589,177.530624 1129.212280,178.197296 1128.870850,178.863953 
	C1128.870850,178.863953 1128.656616,179.258560 1128.317261,179.597473 
	C1127.659668,180.630997 1127.341309,181.325577 1127.022949,182.020172 
	C1127.022949,182.020157 1126.829834,182.382202 1126.476807,182.702057 
	C1125.811890,183.726639 1125.500000,184.431381 1125.188110,185.136108 
	C1124.811890,185.848022 1124.435791,186.559952 1123.556396,187.600098 
	C1122.843018,188.705948 1122.632812,189.483566 1122.422607,190.261185 
	C1122.170654,190.550659 1121.918701,190.840134 1121.260742,191.514679 
	C1120.553345,192.584686 1120.252197,193.269623 1119.950928,193.954544 
	C1119.950928,193.954544 1119.775879,194.336365 1119.405884,194.674683 
	C1118.288452,196.597427 1117.541016,198.181839 1116.793579,199.766251 
	C1115.450806,201.858612 1114.107910,203.950958 1112.358643,206.485016 
	C1111.628662,207.612183 1111.305298,208.297638 1110.981934,208.983093 
	C1110.981934,208.983093 1110.763184,209.338501 1110.413818,209.665558 
	C1109.770874,210.706635 1109.477295,211.420670 1109.183716,212.134735 
	C1108.810669,212.854614 1108.437500,213.574478 1107.545410,214.606201 
	C1106.628906,215.887390 1106.231323,216.856720 1105.833740,217.826050 
	C1105.833740,217.826065 1105.525146,218.195374 1105.157471,218.553314 
	C1104.520996,219.602509 1104.252441,220.293732 1103.983887,220.984985 
	C1103.983887,220.984985 1103.769653,221.336960 1103.424072,221.625702 
	C1102.605713,222.944077 1102.132812,223.973709 1101.659790,225.003326 
	C1100.034790,227.681580 1098.409790,230.359833 1096.353271,233.474213 
	C1095.607422,234.600235 1095.293213,235.290146 1094.979126,235.980072 
	C1094.979126,235.980072 1094.742065,236.323898 1094.392944,236.650986 
	C1093.748901,237.692703 1093.453979,238.407333 1093.158936,239.121948 
	C1092.172241,240.856186 1091.185547,242.590408 1089.654053,244.633789 
	C1088.679443,245.892532 1088.249512,246.842117 1087.819580,247.791687 
	C1087.819580,247.791687 1087.918701,247.911545 1087.549561,247.916687 
	C1086.761353,248.588562 1086.342285,249.255310 1085.923218,249.922058 
	C1085.709229,250.158493 1085.514160,250.409607 1084.872803,250.878006 
	C1083.953979,251.734543 1083.500366,252.388474 1083.046753,253.042419 
	C1082.261230,253.673828 1081.475830,254.305237 1080.086426,255.043137 
	C1076.909058,256.991425 1074.335693,258.833221 1071.762207,260.675049 
	C1071.762207,260.675049 1071.341309,260.784485 1070.749146,260.830566 
	C1067.438477,262.004974 1064.719849,263.133270 1061.586548,264.307098 
	C1057.174316,264.393158 1053.176758,264.469025 1049.179321,264.469147 
	C882.268799,264.474152 715.358337,264.481903 548.447815,264.463043 
	C516.966980,264.459503 485.486176,264.346954 453.851013,263.974548 
	C452.703705,263.277618 451.710724,262.890900 450.717743,262.504150 
	C449.530518,261.236725 448.343323,259.969299 446.953552,258.015198 
	C446.982788,252.124832 447.214569,246.921127 447.446350,241.717407 
	C448.648651,239.767029 449.850952,237.816666 451.468353,235.451965 
	C452.755066,233.366760 453.626648,231.695877 454.380127,229.538788 
	C443.970490,228.947983 433.678925,228.843369 423.387360,228.738739 
	C423.063629,228.299606 422.739899,227.860474 422.332092,226.739685 
	C422.182068,207.365753 422.116150,188.673477 422.050201,169.981216 
	C422.114899,168.919632 422.179565,167.858032 422.408203,166.178040 
	C421.999969,164.375565 421.427704,163.191483 420.855469,162.007416 
	C420.769226,161.624161 420.682983,161.240921 420.648102,160.263763 
	C419.571075,158.365082 418.442688,157.060303 417.314331,155.755508 
	C416.753937,155.215088 416.193573,154.674683 415.328247,153.588287 
	C407.246002,146.745621 394.082794,148.614685 388.947174,155.949509 
	C387.884705,157.319611 386.822266,158.689713 385.347626,160.457443 
	C384.537994,161.903717 384.140533,162.952362 383.743073,164.001007 
	C383.674835,164.368332 383.606598,164.735657 383.200897,165.545197 
	C382.564178,168.324020 382.264923,170.660629 381.962158,173.466064 
	C381.942688,191.965958 381.926727,209.997009 381.910767,228.028046 
	C381.910767,228.028046 381.845520,228.146942 381.436768,228.290497 
	C369.702972,228.363800 358.377869,228.293533 347.052795,228.223282 
	C347.052795,228.223282 347.176514,228.168182 347.161133,227.632980 
	C347.166809,178.775406 347.187897,130.453033 347.651917,82.003189 
	C359.309143,81.975830 370.523438,82.075958 381.737732,82.176086 
	C381.737732,82.176079 381.976105,82.208168 381.954071,82.561142 
	C381.984772,100.270119 382.037537,117.626137 381.946350,135.214722 
	C381.807922,135.629578 381.813477,135.811859 381.633545,136.222534 
	C381.881378,136.944427 382.314758,137.437912 382.748108,137.931412 
	C383.196777,136.994598 383.645447,136.057770 384.059082,135.078217 
	C384.024048,135.035492 384.118286,135.093140 384.430542,135.080994 
	C385.162659,134.379990 385.582489,133.691132 386.002319,133.002289 
	C401.049164,114.276466 440.605988,113.835350 452.333344,139.921143 
	C454.015717,143.663330 454.981049,147.727859 456.519043,152.295624 
	C456.863373,157.248581 457.036957,161.548782 457.058350,165.849731 
	C457.149811,184.216721 457.196320,202.583908 457.105011,221.306091 
	C457.060608,222.421661 457.170441,223.182175 457.447632,225.101425 
	C458.431335,223.011139 458.873749,222.071030 459.433319,221.061035 
	C459.635284,220.820068 459.640533,220.646729 459.566193,220.471146 
	C467.179810,207.932938 474.886597,195.450180 482.387604,182.844971 
	C497.905121,156.768341 513.325012,130.633545 528.762024,104.509064 
	C538.828552,87.473160 548.801025,70.381516 558.916321,53.374725 
	C566.383728,40.819801 576.896362,32.350174 592.278931,29.513321 
	C595.457214,29.217163 597.953674,29.073120 600.450134,29.073185 
	C798.956299,29.078381 997.462463,29.094845 1195.968628,29.110458 
	C1196.451416,29.540409 1196.867920,30.105961 1197.427002,30.380026 
	C1206.723999,34.936943 1209.285767,42.585716 1204.095093,51.690842 
	C1197.139038,63.892712 1189.878906,75.921288 1182.320679,88.465652 
	C1181.583008,89.593544 1181.274170,90.280090 1180.965210,90.966629 
	C1180.965210,90.966637 1180.721436,91.309967 1180.354980,91.664673 
	C1179.382690,93.389000 1178.776733,94.758636 1178.170898,96.128265 
	C1177.523193,97.207153 1176.875488,98.286034 1175.698242,99.668663 
	C1174.765381,100.969757 1174.362183,101.967102 1173.959106,102.964447 
	C1173.959106,102.964455 1173.681763,103.286346 1173.287964,103.619629 
	C1172.446045,105.062050 1171.997925,106.171181 1171.549683,107.280304 
	C1170.341431,109.226357 1169.133179,111.172417 1167.499268,113.554375 
	C1166.182129,115.737839 1165.290527,117.485405 1164.399048,119.232964 
	C1163.208618,121.179420 1162.018188,123.125893 1160.411255,125.520279 
	C1158.736572,128.366943 1157.478516,130.765686 1156.220581,133.164459 
	C1155.407349,134.467926 1154.594116,135.771362 1153.390869,137.500946 
	C1152.661255,138.612579 1152.321533,139.298080 1151.981812,139.983566 
	C1151.981812,139.983551 1151.827637,140.371933 1151.467773,140.696838 
	C1150.688232,141.958572 1150.268555,142.895386 1149.848877,143.832184 
	C1149.848877,143.832184 1149.959473,143.887192 1149.595459,143.983383 
	C1148.956909,144.800278 1148.682373,145.520981 1148.407715,146.241699 
M691.691528,224.021667 
	C691.921570,222.803101 692.348511,221.585052 692.351685,220.365891 
	C692.393677,204.429657 692.429260,188.493011 692.354187,172.557007 
	C692.303345,161.773331 697.217712,153.865417 706.935303,149.836334 
	C711.952454,147.756149 717.879883,147.916000 723.358459,146.867355 
	C724.473938,146.653839 725.421143,145.560822 726.645691,143.972504 
	C726.580933,135.360992 726.516174,126.749474 726.729431,117.399765 
	C725.816162,116.987442 724.858582,116.140617 723.996277,116.228439 
	C712.467407,117.402618 702.475159,121.615311 695.413879,131.278900 
	C694.865112,132.029846 694.792175,133.128525 694.498047,134.065567 
	C693.789856,133.648880 693.081726,133.232193 692.373535,132.815521 
	C692.373535,129.219543 692.193237,125.611923 692.424438,122.030884 
	C692.653809,118.477905 691.219849,117.412704 687.779114,117.496025 
	C679.619812,117.693604 671.440979,117.820030 663.292969,117.458237 
	C658.730408,117.255653 657.747192,118.888725 657.769226,123.171524 
	C657.935059,155.327042 657.844177,187.483856 657.907837,219.640121 
	C657.910706,221.083435 658.629272,222.525345 659.670166,224.213425 
	C660.133118,224.178131 660.596069,224.142838 661.960327,224.356277 
	C670.955872,224.272675 679.951477,224.189087 689.629944,224.228058 
	C690.077271,224.133820 690.524658,224.039581 691.691528,224.021667 
M835.941406,224.352753 
	C852.024963,224.364410 868.108582,224.416473 884.191956,224.375320 
	C897.777222,224.340546 911.362183,224.197662 925.894348,224.236450 
	C926.762939,223.722122 927.631592,223.207794 929.056519,222.108490 
	C928.992920,215.402557 928.929382,208.696640 929.055481,201.054016 
	C928.096558,200.395676 927.137512,199.164017 926.178772,199.164261 
	C909.549133,199.168732 892.919434,199.324585 876.516174,198.663254 
	C877.791565,196.586380 878.813782,194.291992 880.381775,192.466476 
	C895.116882,175.311722 909.957153,158.247284 924.721619,141.117615 
	C925.775513,139.894867 927.153381,138.392532 927.214966,136.969727 
	C927.487122,130.681442 927.332703,124.374687 927.332703,118.078041 
	C926.197021,117.823509 925.561584,117.557114 924.925842,117.556419 
	C895.778687,117.524452 866.631470,117.546791 837.484558,117.458542 
	C834.395569,117.449181 833.918640,119.002716 833.949097,121.506683 
	C834.018066,127.168732 834.146362,132.839615 833.908508,138.492508 
	C833.748169,142.301865 834.847900,143.751389 838.953735,143.669220 
	C851.939880,143.409348 864.934570,143.558151 877.925842,143.586563 
	C879.598938,143.590225 881.271484,143.815887 883.769958,143.999329 
	C882.572754,145.506699 882.105042,146.144302 881.588196,146.739273 
	C865.994141,164.691040 850.360229,182.608475 834.855835,200.637268 
	C833.441956,202.281403 832.198242,204.576645 832.012756,206.670242 
	C831.588135,211.463287 831.750183,216.323746 831.957275,221.144699 
	C832.000183,222.145416 833.271118,223.093384 834.502319,224.217010 
	C834.680786,224.178879 834.859253,224.140732 835.941406,224.352753 
M933.274109,195.685623 
	C938.956909,208.542282 948.679077,217.215561 961.700928,221.933990 
	C975.177002,226.816956 989.113281,227.144211 1002.980774,223.737930 
	C1013.942322,221.045456 1023.621338,215.846954 1031.698364,206.742859 
	C1027.973755,203.161926 1024.394043,199.751053 1020.848694,196.304932 
	C1014.326416,189.965256 1014.382812,190.032593 1006.777466,194.840195 
	C992.596436,203.804428 971.119202,202.335724 964.350708,184.242050 
	C963.830688,182.851868 964.127136,181.156265 964.968201,179.759308 
	C974.402283,179.777603 983.836548,179.845505 993.270325,179.802597 
	C1007.490173,179.737930 1021.709656,179.595856 1036.581787,179.892654 
	C1037.157715,178.561111 1038.288208,177.198547 1038.215820,175.903259 
	C1037.855347,169.453979 1037.799805,162.892609 1036.488159,156.610565 
	C1033.372192,141.686447 1026.077271,129.223694 1011.764343,122.534851 
	C993.653076,114.070976 975.097534,114.206329 956.979797,122.522041 
	C944.015381,128.472473 935.339111,138.598602 930.937927,152.893082 
	C930.753967,153.647079 930.570007,154.401093 930.077271,155.912262 
	C929.889648,157.794281 929.702087,159.676300 928.915833,162.067673 
	C929.085388,168.210220 929.254944,174.352783 929.454895,181.296829 
	C929.700500,183.168747 929.946106,185.040665 929.966125,187.555527 
	C930.480774,188.518250 930.995361,189.480972 931.522522,190.965179 
	C931.601624,191.302750 931.680725,191.640305 931.458557,192.418839 
	C932.035522,193.278397 932.612488,194.137939 933.274109,195.685623 
M823.822937,224.229614 
	C824.311157,223.439774 824.799377,222.649948 825.660156,221.002182 
	C825.639832,198.026321 825.773682,175.048981 825.553040,152.075043 
	C825.356628,131.620316 810.451233,120.643417 794.331238,117.503014 
	C772.924683,113.332718 752.830200,118.526184 733.197632,126.592323 
	C730.692017,127.621750 730.090088,129.187622 731.235901,131.689392 
	C733.578003,136.802872 735.993103,141.901871 737.948120,147.166534 
	C739.120361,150.323318 740.665466,150.030563 743.204895,149.095001 
	C749.406433,146.810287 755.579102,143.797638 762.008545,142.959839 
	C768.726257,142.084473 775.953247,142.464188 782.551392,144.019073 
	C790.251282,145.833572 793.784607,154.217499 790.031433,160.627472 
	C781.028625,160.692276 772.025818,160.757080 762.365906,160.451248 
	C757.921021,160.990143 753.450806,161.374374 749.036072,162.097366 
	C736.534790,164.144714 725.730774,173.908249 723.869141,184.660797 
	C721.114014,200.574188 726.579041,213.981293 738.649292,220.919998 
	C753.727051,229.587570 775.633850,227.597107 788.668701,216.398453 
	C789.470520,215.709564 790.410217,215.181137 792.386047,213.820221 
	C792.386047,216.796524 792.193848,218.727646 792.455994,220.595001 
	C792.621399,221.773010 793.466187,222.855621 794.503906,224.214981 
	C794.684509,224.183487 794.865051,224.151993 795.950195,224.362427 
	C804.952820,224.277588 813.955444,224.192749 823.822937,224.229614 
M642.273987,189.236725 
	C639.143127,185.886398 636.012268,182.536072 632.929321,179.237000 
	C606.737854,202.479889 582.314819,196.730255 569.842407,183.402924 
	C556.250122,168.879089 554.959045,144.104446 567.361328,128.817795 
	C573.922852,120.730263 582.054993,115.586021 592.613770,114.425682 
	C609.138733,112.609718 621.623718,120.256912 632.703796,131.869553 
	C638.758301,124.675842 644.283081,117.828064 650.145081,111.282227 
	C652.582886,108.560028 652.062561,106.957809 649.572693,104.836510 
	C628.983521,87.294792 605.372070,80.853508 579.001404,86.707153 
	C549.978699,93.149467 530.688721,110.719528 524.555603,140.169159 
	C519.267212,165.562317 525.384399,188.502533 544.864685,206.612320 
	C568.796509,228.860458 602.342529,232.392151 632.202942,216.235901 
	C639.793091,212.129150 646.993164,207.453293 652.869263,200.444626 
	C649.354492,196.739502 646.045837,193.251648 642.273987,189.236725 
z"/>
<path fill="#FAFAFA" opacity="1.000000" stroke="none" 
	d="
M305.697906,150.286896 
	C301.886078,149.348434 298.385803,148.146774 294.829865,147.949661 
	C281.478302,147.209579 271.178070,160.515091 272.726013,171.409912 
	C273.599243,177.556046 272.966187,184.259460 275.237671,189.799103 
	C281.988983,206.264359 304.918854,204.052795 312.872894,194.052902 
	C313.889160,192.775223 314.925446,191.513428 316.195892,189.943451 
	C323.877960,194.407837 331.468994,198.719849 338.893005,203.302429 
	C339.564240,203.716736 339.720886,206.192612 339.165863,207.172806 
	C334.375824,215.632278 326.678802,220.676086 318.121338,224.727554 
	C307.191101,229.902390 295.705078,229.961716 284.050018,228.789108 
	C263.381927,226.709686 249.000122,216.075165 241.007996,196.922714 
	C239.738861,193.881317 238.689575,190.650635 238.208359,187.408081 
	C237.805252,184.691788 236.900192,183.771286 234.151382,183.782135 
	C211.657883,183.870987 189.163895,183.831238 166.670059,183.847870 
	C166.189713,183.848221 165.709549,184.054764 165.251373,184.160034 
	C163.934799,191.730362 174.610184,201.756760 182.667358,202.914978 
	C193.406006,204.458664 203.222427,202.613464 211.549469,195.399704 
	C214.043900,193.238754 215.596405,193.391907 217.752991,195.667206 
	C221.746826,199.880844 225.886963,203.965866 230.130539,207.928421 
	C232.221863,209.881271 232.232849,211.216370 230.092621,213.166702 
	C222.724396,219.881180 214.335068,224.253281 204.721695,227.272064 
	C193.995514,230.640259 183.187607,229.741562 172.696747,228.915863 
	C151.998657,227.286804 133.227905,207.059586 130.177658,186.227295 
	C127.607590,168.674576 129.918594,152.473587 141.521332,138.533173 
	C151.037308,127.099945 163.609222,121.276413 178.377197,120.357063 
	C189.553467,119.661316 200.630707,120.029366 211.072754,124.927139 
	C225.724121,131.799271 233.613510,143.859375 237.573792,159.622925 
	C238.383835,158.722855 239.242676,158.187378 239.468765,157.456223 
	C245.397446,138.284286 258.006348,126.062607 277.631531,121.827454 
	C296.994873,117.648819 315.317474,119.892303 331.106628,133.107803 
	C333.759613,135.328339 335.926208,138.136093 338.277466,140.709183 
	C340.361053,142.989334 339.859894,144.559845 337.169830,146.125687 
	C330.057861,150.265472 323.086517,154.646774 316.420135,158.711884 
	C313.147430,156.131973 309.565674,153.308426 305.697906,150.286896 
M163.742264,163.881149 
	C164.146469,164.302155 164.548950,165.089218 164.955154,165.091141 
	C178.388199,165.155243 191.821609,165.144180 205.759613,165.144180 
	C205.519806,163.123871 205.329910,161.524033 205.336227,159.177628 
	C200.898819,147.050323 197.433609,144.563660 180.957535,144.893387 
	C173.163620,145.049347 168.452957,150.729080 165.388519,158.400803 
	C165.278168,159.272125 165.167831,160.143433 164.462296,161.248352 
	C164.356613,161.843399 164.250916,162.438431 163.742264,163.881149 
z"/>
<path fill="#F9F9F9" opacity="1.000000" stroke="none" 
	d="
M57.029900,228.285995 
	C57.029900,228.285995 57.118488,228.126358 57.061089,227.593292 
	C57.000782,226.561630 56.995319,226.063004 56.995342,225.564392 
	C56.996967,191.322739 57.026928,157.081009 56.915222,122.839737 
	C56.909874,121.200066 55.653660,119.564476 54.979961,117.926987 
	C44.115768,117.815109 33.251446,117.714256 22.387510,117.581253 
	C20.419159,117.557152 18.452421,117.401268 16.091190,116.709457 
	C15.718452,107.409378 15.739463,98.706055 16.118740,89.876251 
	C17.108351,89.598053 17.739674,89.313652 18.371037,89.313560 
	C55.912262,89.308044 93.453506,89.317482 130.994659,89.378746 
	C132.238480,89.380775 133.481400,89.930824 134.731476,90.679543 
	C134.760635,99.738907 134.783081,108.344139 134.805527,116.949379 
	C128.008667,117.163284 121.213074,117.446632 114.414574,117.570557 
	C108.251167,117.682915 102.084587,117.621544 95.202019,117.680954 
	C94.308449,117.797653 94.132271,117.870178 93.552071,117.976791 
	C92.855515,119.921341 92.310959,121.831413 92.307953,123.742332 
	C92.256203,156.690536 92.280869,189.638870 92.247444,222.587128 
	C92.245445,224.558197 91.895767,226.528915 91.259232,228.529968 
	C79.550354,228.468750 68.290123,228.377380 57.029900,228.285995 
z"/>
<path fill="#000000" opacity="1.000000" stroke="none" 
	d="
M1196.043945,28.773937 
	C997.462463,29.094845 798.956299,29.078381 600.450134,29.073185 
	C597.953674,29.073120 595.457214,29.217163 592.499756,29.215820 
	C592.333313,28.427456 592.515503,27.197233 592.943665,27.104656 
	C594.217957,26.829144 595.588867,26.997988 596.922058,26.997984 
	C795.067749,26.997578 993.213440,26.994232 1191.359131,27.057117 
	C1192.945923,27.057621 1194.532593,27.957472 1196.043945,28.773937 
z"/>
<path fill="#000000" opacity="1.000000" stroke="none" 
	d="
M454.005341,264.284698 
	C485.486176,264.346954 516.966980,264.459503 548.447815,264.463043 
	C715.358337,264.481903 882.268799,264.474152 1049.179321,264.469147 
	C1053.176758,264.469025 1057.174316,264.393158 1061.843018,264.522217 
	C1063.633057,264.610840 1064.751831,264.529846 1065.870728,264.448853 
	C1064.445312,264.966766 1063.038086,265.860870 1061.590942,265.931244 
	C1057.435669,266.133179 1053.264282,266.001312 1049.099243,266.001312 
	C852.341614,266.001648 655.583984,266.003967 458.826385,265.977814 
	C456.703949,265.977539 454.581604,265.605804 452.516602,265.052307 
	C453.051086,264.559662 453.528229,264.422180 454.005341,264.284698 
z"/>
<path fill="#000000" opacity="1.000000" stroke="none" 
	d="
M347.208954,82.130661 
	C347.187897,130.453033 347.166809,178.775406 347.138123,227.569305 
	C346.419922,226.788284 345.090942,225.537155 345.088104,224.283035 
	C344.982178,177.628525 344.992065,130.973755 345.042786,84.319077 
	C345.043884,83.294685 345.700775,82.271011 346.476135,81.437325 
	C347.003296,81.795311 347.106140,81.962982 347.208954,82.130661 
z"/>
<path fill="#5E5E5E" opacity="1.000000" stroke="none" 
	d="
M134.724747,90.225418 
	C133.481400,89.930824 132.238480,89.380775 130.994659,89.378746 
	C93.453506,89.317482 55.912262,89.308044 18.371037,89.313560 
	C17.739674,89.313652 17.108351,89.598053 15.946605,90.071289 
	C15.242979,90.401054 15.069755,90.409325 14.896528,90.417587 
	C16.093567,89.597282 17.288624,88.063469 18.487934,88.060143 
	C56.726303,87.953873 94.965080,87.994133 133.203781,88.035362 
	C133.669434,88.035858 134.134781,88.336311 134.825317,89.112381 
	C134.941833,89.893814 134.833282,90.059616 134.724747,90.225418 
z"/>
<path fill="#5E5E5E" opacity="1.000000" stroke="none" 
	d="
M91.707878,228.499786 
	C91.895767,226.528915 92.245445,224.558197 92.247444,222.587128 
	C92.280869,189.638870 92.256203,156.690536 92.307953,123.742332 
	C92.310959,121.831413 92.855515,119.921341 93.578262,118.448616 
	C94.009026,155.253189 94.009567,191.620010 94.010109,227.986847 
	C93.833321,228.260941 93.621811,228.504929 92.837608,228.796967 
	C92.102371,228.749985 91.905121,228.624893 91.707878,228.499786 
z"/>
<path fill="#000000" opacity="1.000000" stroke="none" 
	d="
M54.988667,118.400345 
	C55.653660,119.564476 56.909874,121.200066 56.915222,122.839737 
	C57.026928,157.081009 56.996967,191.322739 56.995342,225.564392 
	C56.995319,226.063004 57.000782,226.561630 56.996651,227.528656 
	C56.325607,226.213058 55.088295,224.430939 55.082386,222.644775 
	C54.967918,188.054688 54.997448,153.464157 54.988667,118.400345 
z"/>
<path fill="#000000" opacity="1.000000" stroke="none" 
	d="
M459.417480,219.900574 
	C459.640533,220.646729 459.635284,220.820068 459.093445,220.997162 
	C458.177368,220.985779 457.718292,220.968399 457.259216,220.951019 
	C457.196320,202.583908 457.149811,184.216721 457.058350,165.849731 
	C457.036957,161.548782 456.863373,157.248581 456.838013,152.485840 
	C460.304443,151.076416 458.935638,153.796402 458.943604,154.947418 
	C459.035828,168.258850 458.971222,181.571274 459.014038,194.883209 
	C459.040222,203.032318 459.180023,211.181076 459.417480,219.900574 
z"/>
<path fill="#000000" opacity="1.000000" stroke="none" 
	d="
M94.318665,227.704651 
	C94.009567,191.620010 94.009026,155.253189 93.982285,118.414520 
	C94.132271,117.870178 94.308449,117.797653 94.753082,117.823090 
	C95.018532,152.615143 95.021286,187.309219 94.996117,222.003281 
	C94.994804,223.809753 94.755638,225.616074 94.318665,227.704651 
z"/>
<path fill="#000000" opacity="1.000000" stroke="none" 
	d="
M382.309692,227.916260 
	C381.926727,209.997009 381.942688,191.965958 382.207336,173.386002 
	C382.592560,172.732544 382.729095,172.627991 382.865631,172.523453 
	C383.244904,174.275803 383.943573,176.026367 383.953430,177.780792 
	C384.039917,193.161926 384.034515,208.543930 383.947418,223.925034 
	C383.940094,225.220490 383.140289,226.511444 382.309692,227.916260 
z"/>
<path fill="#000000" opacity="1.000000" stroke="none" 
	d="
M382.090271,134.982147 
	C382.037537,117.626137 381.984772,100.270119 381.994354,82.447838 
	C382.705780,83.601120 383.898926,85.213860 383.919312,86.841286 
	C384.109528,102.038933 384.098541,117.239113 384.169159,133.195541 
	C384.167755,134.332733 384.143005,134.712936 384.118286,135.093140 
	C384.118286,135.093140 384.024048,135.035492 383.805542,135.016632 
	C383.413971,135.015076 383.240906,135.032379 382.825256,135.006226 
	C382.582703,134.962784 382.090271,134.982147 382.090271,134.982147 
z"/>
<path fill="#8B8B8B" opacity="1.000000" stroke="none" 
	d="
M347.651917,82.003189 
	C347.106140,81.962982 347.003296,81.795311 346.860016,81.335396 
	C354.838348,80.779732 362.856262,80.367081 370.876343,80.320122 
	C374.518188,80.298782 378.164246,81.001984 381.773071,81.776306 
	C370.523438,82.075958 359.309143,81.975830 347.651917,82.003189 
z"/>
<path fill="#8B8B8B" opacity="1.000000" stroke="none" 
	d="
M389.316833,155.873169 
	C394.082794,148.614685 407.246002,146.745621 415.127167,153.375290 
	C412.099121,152.823227 408.954895,151.189941 405.838440,151.241287 
	C401.888947,151.306381 397.933044,152.628738 394.039856,153.639755 
	C392.505493,154.038223 391.132782,155.059296 389.316833,155.873169 
z"/>
<path fill="#050505" opacity="1.000000" stroke="none" 
	d="
M421.732971,170.259964 
	C422.116150,188.673477 422.182068,207.365753 422.167603,226.519501 
	C421.720154,225.782730 421.038269,224.585678 421.033539,223.385986 
	C420.966949,206.412216 420.987640,189.438080 421.013031,172.464066 
	C421.014008,171.822083 421.275604,171.180481 421.732971,170.259964 
z"/>
<path fill="#030303" opacity="1.000000" stroke="none" 
	d="
M134.731476,90.679543 
	C134.833282,90.059616 134.941833,89.893814 135.117218,89.438705 
	C135.779953,90.053200 136.877167,90.948395 136.892868,91.862167 
	C137.025284,99.569733 136.990402,107.281075 136.897064,114.989967 
	C136.889496,115.615326 136.074753,116.230919 135.220306,116.900208 
	C134.783081,108.344139 134.760635,99.738907 134.731476,90.679543 
z"/>
<path fill="#050505" opacity="1.000000" stroke="none" 
	d="
M14.714355,90.749771 
	C15.069755,90.409325 15.242979,90.401054 15.588338,90.197754 
	C15.739463,98.706055 15.718452,107.409378 15.675889,116.584488 
	C15.118485,116.487732 14.113312,115.915810 14.117392,115.351166 
	C14.175828,107.260849 14.370382,99.171524 14.714355,90.749771 
z"/>
<path fill="#0A0A0A" opacity="1.000000" stroke="none" 
	d="
M423.182861,228.993256 
	C433.678925,228.843369 443.970490,228.947983 454.039825,229.641846 
	C452.923187,231.311935 452.028778,232.392792 451.134338,233.473648 
	C451.248199,230.605576 449.676117,229.951096 447.087524,229.998108 
	C440.179626,230.123642 433.267578,230.075638 426.358124,230.004318 
	C425.229065,229.992661 424.104858,229.511765 423.182861,228.993256 
z"/>
<path fill="#000000" opacity="1.000000" stroke="none" 
	d="
M91.259232,228.529968 
	C91.905121,228.624893 92.102371,228.749985 92.643311,228.942642 
	C92.106171,229.345520 91.227119,229.966949 90.344223,229.972458 
	C80.094696,230.036331 69.844475,230.025482 59.594856,229.964218 
	C58.864307,229.959854 58.137043,229.405228 57.219078,228.696228 
	C68.290123,228.377380 79.550354,228.468750 91.259232,228.529968 
z"/>
<path fill="#000000" opacity="1.000000" stroke="none" 
	d="
M347.228607,228.641266 
	C358.377869,228.293533 369.702972,228.363800 381.488892,228.333893 
	C381.080902,228.824326 380.217499,229.919052 379.342346,229.928528 
	C369.251892,230.037888 359.159576,229.997162 349.068146,229.932495 
	C348.511719,229.928940 347.958923,229.363266 347.228607,228.641266 
z"/>
<path fill="#8B8B8B" opacity="1.000000" stroke="none" 
	d="
M447.156982,241.898285 
	C447.214569,246.921127 446.982788,252.124832 446.756409,257.751831 
	C442.698242,253.191925 442.735077,247.587997 447.156982,241.898285 
z"/>
<path fill="#8B8B8B" opacity="1.000000" stroke="none" 
	d="
M1065.910156,264.164062 
	C1064.751831,264.529846 1063.633057,264.610840 1062.257812,264.476715 
	C1064.719849,263.133270 1067.438477,262.004974 1070.543091,260.899902 
	C1069.269287,261.908508 1067.609375,262.893890 1065.910156,264.164062 
z"/>
<path fill="#8B8B8B" opacity="1.000000" stroke="none" 
	d="
M1072.130615,260.725830 
	C1074.335693,258.833221 1076.909058,256.991425 1079.832031,255.207596 
	C1077.620605,257.102600 1075.059937,258.939606 1072.130615,260.725830 
z"/>
<path fill="#8B8B8B" opacity="1.000000" stroke="none" 
	d="
M1156.573242,133.120850 
	C1157.478516,130.765686 1158.736572,128.366943 1160.303711,125.848434 
	C1159.383911,128.178192 1158.154907,130.627716 1156.573242,133.120850 
z"/>
<path fill="#8B8B8B" opacity="1.000000" stroke="none" 
	d="
M382.775940,172.155579 
	C382.729095,172.627991 382.592560,172.732544 382.210876,172.917145 
	C382.264923,170.660629 382.564178,168.324020 383.155762,165.821823 
	C383.194183,167.700058 382.940247,169.743881 382.775940,172.155579 
z"/>
<path fill="#8B8B8B" opacity="1.000000" stroke="none" 
	d="
M1164.689941,119.082001 
	C1165.290527,117.485405 1166.182129,115.737839 1167.390869,113.881409 
	C1166.799072,115.492050 1165.889893,117.211540 1164.689941,119.082001 
z"/>
<path fill="#8B8B8B" opacity="1.000000" stroke="none" 
	d="
M451.128540,233.770660 
	C452.028778,232.392792 452.923187,231.311935 454.157898,230.128021 
	C453.626648,231.695877 452.755066,233.366760 451.582458,235.127487 
	C451.228516,234.834106 451.175629,234.450882 451.128540,233.770660 
z"/>
<path fill="#8B8B8B" opacity="1.000000" stroke="none" 
	d="
M420.637756,162.215927 
	C421.427704,163.191483 421.999969,164.375565 422.363647,165.777588 
	C421.576752,164.805176 420.998413,163.614807 420.637756,162.215927 
z"/>
<path fill="#8B8B8B" opacity="1.000000" stroke="none" 
	d="
M1117.148438,199.816849 
	C1117.541016,198.181839 1118.288452,196.597427 1119.338379,194.873535 
	C1118.928345,196.445190 1118.215820,198.156326 1117.148438,199.816849 
z"/>
<path fill="#8B8B8B" opacity="1.000000" stroke="none" 
	d="
M417.289581,156.087372 
	C418.442688,157.060303 419.571075,158.365082 420.564209,159.981216 
	C419.374298,159.001465 418.319550,157.710358 417.289581,156.087372 
z"/>
<path fill="#8B8B8B" opacity="1.000000" stroke="none" 
	d="
M1135.428955,169.018677 
	C1135.708862,167.712021 1136.323730,166.346329 1137.237671,164.835419 
	C1136.945923,166.113342 1136.354980,167.536499 1135.428955,169.018677 
z"/>
<path fill="#8B8B8B" opacity="1.000000" stroke="none" 
	d="
M1178.502930,96.050278 
	C1178.776733,94.758636 1179.382690,93.389000 1180.273926,91.858978 
	C1179.984497,93.123161 1179.409790,94.547722 1178.502930,96.050278 
z"/>
<path fill="#8B8B8B" opacity="1.000000" stroke="none" 
	d="
M453.851013,263.974548 
	C453.528229,264.422180 453.051086,264.559662 452.302734,264.680908 
	C451.661102,264.101074 451.290741,263.537506 450.819031,262.739044 
	C451.710724,262.890900 452.703705,263.277618 453.851013,263.974548 
z"/>
<path fill="#8B8B8B" opacity="1.000000" stroke="none" 
	d="
M1101.959717,224.825684 
	C1102.132812,223.973709 1102.605713,222.944077 1103.342651,221.814926 
	C1103.157715,222.692947 1102.708740,223.670471 1101.959717,224.825684 
z"/>
<path fill="#8B8B8B" opacity="1.000000" stroke="none" 
	d="
M384.048096,163.831390 
	C384.140533,162.952362 384.537994,161.903717 385.196045,160.751282 
	C385.088837,161.652267 384.720978,162.657028 384.048096,163.831390 
z"/>
<path fill="#8B8B8B" opacity="1.000000" stroke="none" 
	d="
M1171.821777,107.109146 
	C1171.997925,106.171181 1172.446045,105.062050 1173.178833,103.801880 
	C1173.006958,104.746552 1172.550415,105.842270 1171.821777,107.109146 
z"/>
<path fill="#8B8B8B" opacity="1.000000" stroke="none" 
	d="
M1150.181641,143.737549 
	C1150.268555,142.895386 1150.688232,141.958572 1151.406616,140.896637 
	C1151.308472,141.728653 1150.911499,142.685776 1150.181641,143.737549 
z"/>
<path fill="#8B8B8B" opacity="1.000000" stroke="none" 
	d="
M1088.148315,247.744751 
	C1088.249512,246.842117 1088.679443,245.892532 1089.420044,244.862778 
	C1089.312744,245.754349 1088.894897,246.726074 1088.148315,247.744751 
z"/>
<path fill="#8B8B8B" opacity="1.000000" stroke="none" 
	d="
M1106.162842,217.765900 
	C1106.231323,216.856720 1106.628906,215.887390 1107.330322,214.823563 
	C1107.253418,215.721298 1106.872803,216.713531 1106.162842,217.765900 
z"/>
<path fill="#8B8B8B" opacity="1.000000" stroke="none" 
	d="
M1174.286499,102.895493 
	C1174.362183,101.967102 1174.765381,100.969757 1175.490967,99.904205 
	C1175.413574,100.832840 1175.013672,101.829697 1174.286499,102.895493 
z"/>
<path fill="#8B8B8B" opacity="1.000000" stroke="none" 
	d="
M1181.295898,90.926186 
	C1181.274170,90.280090 1181.583008,89.593544 1182.148560,88.769356 
	C1182.145630,89.383049 1181.886108,90.134392 1181.295898,90.926186 
z"/>
<path fill="#8B8B8B" opacity="1.000000" stroke="none" 
	d="
M1093.490723,239.072327 
	C1093.453979,238.407333 1093.748901,237.692703 1094.315674,236.844940 
	C1094.332520,237.482086 1094.077515,238.252380 1093.490723,239.072327 
z"/>
<path fill="#8B8B8B" opacity="1.000000" stroke="none" 
	d="
M1086.246338,249.890701 
	C1086.342285,249.255310 1086.761353,248.588562 1087.483154,247.876434 
	C1087.380249,248.507172 1086.974854,249.183258 1086.246338,249.890701 
z"/>
<path fill="#8B8B8B" opacity="1.000000" stroke="none" 
	d="
M1095.310303,235.937561 
	C1095.293213,235.290146 1095.607422,234.600235 1096.183105,233.777237 
	C1096.176758,234.394455 1095.909180,235.144760 1095.310303,235.937561 
z"/>
<path fill="#8B8B8B" opacity="1.000000" stroke="none" 
	d="
M1083.390991,253.072571 
	C1083.500366,252.388474 1083.953979,251.734543 1084.728149,251.067764 
	C1084.610840,251.737534 1084.173096,252.420135 1083.390991,253.072571 
z"/>
<path fill="#8B8B8B" opacity="1.000000" stroke="none" 
	d="
M1145.241943,151.857391 
	C1145.249634,151.244675 1145.582764,150.572433 1146.181641,149.776352 
	C1146.154053,150.367630 1145.860840,151.082748 1145.241943,151.857391 
z"/>
<path fill="#8B8B8B" opacity="1.000000" stroke="none" 
	d="
M1143.431152,155.015106 
	C1143.414795,154.376846 1143.721191,153.668243 1144.308838,152.837891 
	C1144.311401,153.459045 1144.032471,154.201904 1143.431152,155.015106 
z"/>
<path fill="#8B8B8B" opacity="1.000000" stroke="none" 
	d="
M1148.709229,146.144531 
	C1148.682373,145.520981 1148.956909,144.800278 1149.533936,143.977371 
	C1149.561157,144.599243 1149.285889,145.323303 1148.709229,146.144531 
z"/>
<path fill="#8B8B8B" opacity="1.000000" stroke="none" 
	d="
M1152.298828,139.912750 
	C1152.321533,139.298080 1152.661255,138.612579 1153.287598,137.816010 
	C1153.254883,138.417267 1152.935425,139.129578 1152.298828,139.912750 
z"/>
<path fill="#8B8B8B" opacity="1.000000" stroke="none" 
	d="
M384.430542,135.080994 
	C384.143005,134.712936 384.167755,134.332733 384.286713,133.676392 
	C384.732483,133.263397 385.084076,133.126526 385.718994,132.995972 
	C385.582489,133.691132 385.162659,134.379990 384.430542,135.080994 
z"/>
<path fill="#8B8B8B" opacity="1.000000" stroke="none" 
	d="
M1104.314453,220.936569 
	C1104.252441,220.293732 1104.520996,219.602509 1105.039307,218.762985 
	C1105.074341,219.372513 1104.859741,220.130341 1104.314453,220.936569 
z"/>
<path fill="#8B8B8B" opacity="1.000000" stroke="none" 
	d="
M1109.505737,212.069366 
	C1109.477295,211.420670 1109.770874,210.706635 1110.345947,209.862885 
	C1110.360718,210.490128 1110.094238,211.247070 1109.505737,212.069366 
z"/>
<path fill="#8B8B8B" opacity="1.000000" stroke="none" 
	d="
M1111.313599,208.932083 
	C1111.305298,208.297638 1111.628662,207.612183 1112.214355,206.795135 
	C1112.199463,207.402710 1111.922363,208.141891 1111.313599,208.932083 
z"/>
<path fill="#8B8B8B" opacity="1.000000" stroke="none" 
	d="
M1120.284302,193.899445 
	C1120.252197,193.269623 1120.553345,192.584686 1121.120483,191.766434 
	C1121.130127,192.370193 1120.873901,193.107269 1120.284302,193.899445 
z"/>
<path fill="#8B8B8B" opacity="1.000000" stroke="none" 
	d="
M1122.725464,190.162903 
	C1122.632812,189.483566 1122.843018,188.705948 1123.355835,187.829575 
	C1123.448486,188.508743 1123.238403,189.286682 1122.725464,190.162903 
z"/>
<path fill="#8B8B8B" opacity="1.000000" stroke="none" 
	d="
M1125.504883,185.066833 
	C1125.500000,184.431381 1125.811890,183.726639 1126.411621,182.896561 
	C1126.406738,183.513321 1126.114258,184.255432 1125.504883,185.066833 
z"/>
<path fill="#8B8B8B" opacity="1.000000" stroke="none" 
	d="
M1127.350952,181.958313 
	C1127.341309,181.325577 1127.659668,180.630997 1128.249878,179.811646 
	C1128.240967,180.423401 1127.959961,181.159912 1127.350952,181.958313 
z"/>
<path fill="#8B8B8B" opacity="1.000000" stroke="none" 
	d="
M1129.194824,178.811127 
	C1129.212280,178.197296 1129.553589,177.530624 1130.164551,176.750015 
	C1130.129150,177.343491 1129.823975,178.050888 1129.194824,178.811127 
z"/>
<path fill="#3C3C3C" opacity="1.000000" stroke="none" 
	d="
M642.505615,189.500275 
	C646.045837,193.251648 649.354492,196.739502 652.869263,200.444626 
	C646.993164,207.453293 639.793091,212.129150 632.202942,216.235901 
	C602.342529,232.392151 568.796509,228.860458 544.864685,206.612320 
	C525.384399,188.502533 519.267212,165.562317 524.555603,140.169159 
	C530.688721,110.719528 549.978699,93.149467 579.001404,86.707153 
	C605.372070,80.853508 628.983521,87.294792 649.572693,104.836510 
	C652.062561,106.957809 652.582886,108.560028 650.145081,111.282227 
	C644.283081,117.828064 638.758301,124.675842 632.703796,131.869553 
	C621.623718,120.256912 609.138733,112.609718 592.613770,114.425682 
	C582.054993,115.586021 573.922852,120.730263 567.361328,128.817795 
	C554.959045,144.104446 556.250122,168.879089 569.842407,183.402924 
	C582.314819,196.730255 606.737854,202.479889 632.929321,179.237000 
	C636.012268,182.536072 639.143127,185.886398 642.505615,189.500275 
z"/>
<path fill="#3C3C3C" opacity="1.000000" stroke="none" 
	d="
M790.956604,160.748016 
	C793.784607,154.217499 790.251282,145.833572 782.551392,144.019073 
	C775.953247,142.464188 768.726257,142.084473 762.008545,142.959839 
	C755.579102,143.797638 749.406433,146.810287 743.204895,149.095001 
	C740.665466,150.030563 739.120361,150.323318 737.948120,147.166534 
	C735.993103,141.901871 733.578003,136.802872 731.235901,131.689392 
	C730.090088,129.187622 730.692017,127.621750 733.197632,126.592323 
	C752.830200,118.526184 772.924683,113.332718 794.331238,117.503014 
	C810.451233,120.643417 825.356628,131.620316 825.553040,152.075043 
	C825.773682,175.048981 825.639832,198.026321 825.100098,221.473160 
	C824.012634,222.665390 823.485352,223.386642 822.958069,224.107880 
	C813.955444,224.192749 804.952820,224.277588 795.548523,223.964325 
	C794.917053,223.298828 794.687256,223.031418 794.457458,222.764023 
	C794.307068,223.169678 794.156677,223.575348 794.006287,223.981018 
	C793.466187,222.855621 792.621399,221.773010 792.455994,220.595001 
	C792.193848,218.727646 792.386047,216.796524 792.386047,213.820221 
	C790.410217,215.181137 789.470520,215.709564 788.668701,216.398453 
	C775.633850,227.597107 753.727051,229.587570 738.649292,220.919998 
	C726.579041,213.981293 721.114014,200.574188 723.869141,184.660797 
	C725.730774,173.908249 736.534790,164.144714 749.036072,162.097366 
	C753.450806,161.374374 757.921021,160.990143 762.935059,160.986786 
	C772.184937,161.657944 780.865479,161.812210 789.546631,161.877930 
	C790.013733,161.881485 790.486450,161.141724 790.956604,160.748016 
M778.119934,201.795074 
	C786.392456,199.366501 793.653564,193.353424 792.078613,182.512131 
	C791.877441,181.127640 790.011414,178.922318 788.888550,178.904922 
	C780.924194,178.781418 772.932068,178.846237 764.990234,179.422302 
	C759.330505,179.832825 755.791809,183.607605 755.359070,188.438995 
	C754.781860,194.884979 757.278564,200.258514 762.744812,201.471436 
	C767.410156,202.506653 772.443909,201.881653 778.119934,201.795074 
M789.588867,176.963928 
	C790.051270,176.842056 790.513733,176.720184 790.976135,176.598312 
	C790.973389,176.395279 790.970703,176.192230 790.967957,175.989197 
	C784.742126,175.989197 778.516296,175.989182 772.290466,175.989182 
	C770.551331,175.989182 768.812195,175.989197 767.073059,175.989197 
	C767.073730,176.315765 767.074463,176.642349 767.075134,176.968918 
	C774.308899,176.968918 781.542725,176.968918 789.588867,176.963928 
z"/>
<path fill="#3C3C3C" opacity="1.000000" stroke="none" 
	d="
M930.191772,186.912567 
	C929.946106,185.040665 929.700500,183.168747 929.618103,180.419235 
	C929.692383,173.547195 929.603394,167.552765 929.514404,161.558319 
	C929.702087,159.676300 929.889648,157.794281 930.561768,155.444305 
	C931.183289,154.163315 931.320251,153.350281 931.457214,152.537231 
	C935.339111,138.598602 944.015381,128.472473 956.979797,122.522041 
	C975.097534,114.206329 993.653076,114.070976 1011.764343,122.534851 
	C1026.077271,129.223694 1033.372192,141.686447 1036.488159,156.610565 
	C1037.799805,162.892609 1037.855347,169.453979 1038.215820,175.903259 
	C1038.288208,177.198547 1037.157715,178.561111 1036.092651,179.284332 
	C1034.996460,178.454575 1034.389893,178.040634 1033.782471,178.039536 
	C1011.619812,177.999710 989.457092,177.975464 967.294739,178.059906 
	C966.209229,178.064041 965.127502,179.065506 964.044067,179.602570 
	C964.127136,181.156265 963.830688,182.851868 964.350708,184.242050 
	C971.119202,202.335724 992.596436,203.804428 1006.777466,194.840195 
	C1014.382812,190.032593 1014.326416,189.965256 1020.848694,196.304932 
	C1024.394043,199.751053 1027.973755,203.161926 1031.698364,206.742859 
	C1023.621338,215.846954 1013.942322,221.045456 1002.980774,223.737930 
	C989.113281,227.144211 975.177002,226.816956 961.700928,221.933990 
	C948.679077,217.215561 938.956909,208.542282 933.502563,195.355316 
	C933.073975,194.009277 932.416931,192.993561 931.759827,191.977875 
	C931.680725,191.640305 931.601624,191.302750 931.661377,190.354492 
	C931.264038,188.800049 930.727905,187.856308 930.191772,186.912567 
M963.323792,162.971069 
	C963.830688,163.304138 964.336060,163.925385 964.844727,163.928085 
	C977.248413,163.994141 989.652893,164.037628 1002.055786,163.924362 
	C1003.047363,163.915329 1004.028320,162.742630 1004.967590,161.230362 
	C1006.176208,150.323334 996.329163,139.772278 984.383667,140.129303 
	C972.624268,140.480759 963.012573,150.137283 963.323792,162.971069 
z"/>
<path fill="#3B3B3B" opacity="1.000000" stroke="none" 
	d="
M924.947266,224.102600 
	C911.362183,224.197662 897.777222,224.340546 884.191956,224.375320 
	C868.108582,224.416473 852.024963,224.364410 835.526367,223.936554 
	C834.849915,223.264191 834.588501,223.008011 834.327026,222.751846 
	C834.210083,223.189774 834.093140,223.627716 833.976196,224.065659 
	C833.271118,223.093384 832.000183,222.145416 831.957275,221.144699 
	C831.750183,216.323746 831.588135,211.463287 832.012756,206.670242 
	C832.198242,204.576645 833.441956,202.281403 834.855835,200.637268 
	C850.360229,182.608475 865.994141,164.691040 881.588196,146.739273 
	C882.105042,146.144302 882.572754,145.506699 883.769958,143.999329 
	C881.271484,143.815887 879.598938,143.590225 877.925842,143.586563 
	C864.934570,143.558151 851.939880,143.409348 838.953735,143.669220 
	C834.847900,143.751389 833.748169,142.301865 833.908508,138.492508 
	C834.146362,132.839615 834.018066,127.168732 833.949097,121.506683 
	C833.918640,119.002716 834.395569,117.449181 837.484558,117.458542 
	C866.631470,117.546791 895.778687,117.524452 924.925842,117.556419 
	C925.561584,117.557114 926.197021,117.823509 927.332703,118.078041 
	C927.332703,124.374687 927.487122,130.681442 927.214966,136.969727 
	C927.153381,138.392532 925.775513,139.894867 924.721619,141.117615 
	C909.957153,158.247284 895.116882,175.311722 880.381775,192.466476 
	C878.813782,194.291992 877.791565,196.586380 876.314209,199.366989 
	C877.703247,200.714432 879.289673,201.903931 880.886108,201.917435 
	C896.878357,202.052628 912.872375,201.994415 928.865845,201.990707 
	C928.929382,208.696640 928.992920,215.402557 928.355957,222.431000 
	C926.752747,223.203217 925.849976,223.652908 924.947266,224.102600 
z"/>
<path fill="#3C3C3C" opacity="1.000000" stroke="none" 
	d="
M726.445923,144.873199 
	C725.421143,145.560822 724.473938,146.653839 723.358459,146.867355 
	C717.879883,147.916000 711.952454,147.756149 706.935303,149.836334 
	C697.217712,153.865417 692.303345,161.773331 692.354187,172.557007 
	C692.429260,188.493011 692.393677,204.429657 692.351685,220.365891 
	C692.348511,221.585052 691.921570,222.803101 691.158081,223.749268 
	C690.065430,223.686417 689.506226,223.895950 688.947021,224.105499 
	C679.951477,224.189087 670.955872,224.272675 661.425171,223.943024 
	C660.264832,223.675812 659.639709,223.821854 659.014526,223.967896 
	C658.629272,222.525345 657.910706,221.083435 657.907837,219.640121 
	C657.844177,187.483856 657.935059,155.327042 657.769226,123.171524 
	C657.747192,118.888725 658.730408,117.255653 663.292969,117.458237 
	C671.440979,117.820030 679.619812,117.693604 687.779114,117.496025 
	C691.219849,117.412704 692.653809,118.477905 692.424438,122.030884 
	C692.193237,125.611923 692.373535,129.219543 692.373535,132.815521 
	C693.081726,133.232193 693.789856,133.648880 694.498047,134.065567 
	C694.792175,133.128525 694.865112,132.029846 695.413879,131.278900 
	C702.475159,121.615311 712.467407,117.402618 723.996277,116.228439 
	C724.858582,116.140617 725.816162,116.987442 726.237061,117.894974 
	C725.559570,126.975189 725.364258,135.560043 725.242676,144.145935 
	C725.239319,144.382629 726.027039,144.630524 726.445923,144.873199 
M661.003723,189.500000 
	C661.003723,166.770966 661.003723,144.041946 661.003723,121.312912 
	C660.767395,121.315674 660.531006,121.318443 660.294678,121.321205 
	C660.294678,154.172104 660.294678,187.022995 660.294678,219.873886 
	C660.531067,219.875198 660.767395,219.876526 661.003784,219.877838 
	C661.003784,210.085220 661.003784,200.292618 661.003723,189.500000 
z"/>
<path fill="#303030" opacity="1.000000" stroke="none" 
	d="
M928.960693,201.522369 
	C912.872375,201.994415 896.878357,202.052628 880.886108,201.917435 
	C879.289673,201.903931 877.703247,200.714432 876.200989,199.759033 
	C892.919434,199.324585 909.549133,199.168732 926.178772,199.164261 
	C927.137512,199.164017 928.096558,200.395676 928.960693,201.522369 
z"/>
<path fill="#171717" opacity="1.000000" stroke="none" 
	d="
M964.506104,179.680939 
	C965.127502,179.065506 966.209229,178.064041 967.294739,178.059906 
	C989.457092,177.975464 1011.619812,177.999710 1033.782471,178.039536 
	C1034.389893,178.040634 1034.996460,178.454575 1035.766357,179.081360 
	C1021.709656,179.595856 1007.490173,179.737930 993.270325,179.802597 
	C983.836548,179.845505 974.402283,179.777603 964.506104,179.680939 
z"/>
<path fill="#000000" opacity="1.000000" stroke="none" 
	d="
M726.545776,144.422852 
	C726.027039,144.630524 725.239319,144.382629 725.242676,144.145935 
	C725.364258,135.560043 725.559570,126.975189 726.098083,118.264069 
	C726.516174,126.749474 726.580933,135.360992 726.545776,144.422852 
z"/>
<path fill="#7C7C7C" opacity="1.000000" stroke="none" 
	d="
M929.215088,161.812988 
	C929.603394,167.552765 929.692383,173.547195 929.602905,180.018494 
	C929.254944,174.352783 929.085388,168.210220 929.215088,161.812988 
z"/>
<path fill="#030303" opacity="1.000000" stroke="none" 
	d="
M790.494019,160.687744 
	C790.486450,161.141724 790.013733,161.881485 789.546631,161.877930 
	C780.865479,161.812210 772.184937,161.657944 763.263672,161.172089 
	C772.025818,160.757080 781.028625,160.692276 790.494019,160.687744 
z"/>
<path fill="#7C7C7C" opacity="1.000000" stroke="none" 
	d="
M931.609192,192.198349 
	C932.416931,192.993561 933.073975,194.009277 933.460205,195.011246 
	C932.612488,194.137939 932.035522,193.278397 931.609192,192.198349 
z"/>
<path fill="#8B8B8B" opacity="1.000000" stroke="none" 
	d="
M383.067810,135.049683 
	C383.240906,135.032379 383.413971,135.015076 383.840546,135.059357 
	C383.645447,136.057770 383.196777,136.994598 382.748108,137.931412 
	C382.314758,137.437912 381.881378,136.944427 381.932678,136.222198 
	C382.634186,135.678864 382.850983,135.364273 383.067810,135.049683 
z"/>
<path fill="#7C7C7C" opacity="1.000000" stroke="none" 
	d="
M930.078979,187.234039 
	C930.727905,187.856308 931.264038,188.800049 931.655029,190.093750 
	C930.995361,189.480972 930.480774,188.518250 930.078979,187.234039 
z"/>
<path fill="#272727" opacity="1.000000" stroke="none" 
	d="
M457.104980,221.306091 
	C457.718292,220.968399 458.177368,220.985779 458.976318,221.067047 
	C458.873749,222.071030 458.431335,223.011139 457.447632,225.101425 
	C457.170441,223.182175 457.060608,222.421661 457.104980,221.306091 
z"/>
<path fill="#0A0A0A" opacity="1.000000" stroke="none" 
	d="
M823.390503,224.168747 
	C823.485352,223.386642 824.012634,222.665390 824.913818,221.902130 
	C824.799377,222.649948 824.311157,223.439774 823.390503,224.168747 
z"/>
<path fill="#7C7C7C" opacity="1.000000" stroke="none" 
	d="
M931.197571,152.715149 
	C931.320251,153.350281 931.183289,154.163315 930.716187,155.065735 
	C930.570007,154.401093 930.753967,153.647079 931.197571,152.715149 
z"/>
<path fill="#0A0A0A" opacity="1.000000" stroke="none" 
	d="
M925.420776,224.169525 
	C925.849976,223.652908 926.752747,223.203217 928.077820,222.723480 
	C927.631592,223.207794 926.762939,223.722122 925.420776,224.169525 
z"/>
<path fill="#0A0A0A" opacity="1.000000" stroke="none" 
	d="
M689.288452,224.166779 
	C689.506226,223.895950 690.065430,223.686417 690.798340,223.711121 
	C690.524658,224.039581 690.077271,224.133820 689.288452,224.166779 
z"/>
<path fill="#0A0A0A" opacity="1.000000" stroke="none" 
	d="
M659.342346,224.090668 
	C659.639709,223.821854 660.264832,223.675812 660.974487,223.818665 
	C660.596069,224.142838 660.133118,224.178131 659.342346,224.090668 
z"/>
<path fill="#0A0A0A" opacity="1.000000" stroke="none" 
	d="
M834.239258,224.141327 
	C834.093140,223.627716 834.210083,223.189774 834.327026,222.751846 
	C834.588501,223.008011 834.849915,223.264191 835.074524,223.811478 
	C834.859253,224.140732 834.680786,224.178879 834.239258,224.141327 
z"/>
<path fill="#0A0A0A" opacity="1.000000" stroke="none" 
	d="
M794.255127,224.097992 
	C794.156677,223.575348 794.307068,223.169678 794.457458,222.764023 
	C794.687256,223.031418 794.917053,223.298828 795.096191,223.843369 
	C794.865051,224.151993 794.684509,224.183487 794.255127,224.097992 
z"/>
<path fill="#272727" opacity="1.000000" stroke="none" 
	d="
M382.825256,135.006226 
	C382.850983,135.364273 382.634186,135.678864 382.118225,135.993790 
	C381.813477,135.811859 381.807922,135.629578 381.946320,135.214722 
	C382.090271,134.982147 382.582703,134.962784 382.825256,135.006226 
z"/>
<path fill="#2B2B2B" opacity="1.000000" stroke="none" 
	d="
M165.809692,157.885864 
	C168.452957,150.729080 173.163620,145.049347 180.957535,144.893387 
	C197.433609,144.563660 200.898819,147.050323 204.918488,159.779114 
	C203.648041,161.236267 202.805908,162.824341 201.941025,162.836823 
	C190.448563,163.002686 178.952927,162.947556 167.918762,162.947556 
	C167.023438,160.798798 166.416565,159.342331 165.809692,157.885864 
z"/>
<path fill="#030303" opacity="1.000000" stroke="none" 
	d="
M165.599106,158.143341 
	C166.416565,159.342331 167.023438,160.798798 167.918762,162.947556 
	C178.952927,162.947556 190.448563,163.002686 201.941025,162.836823 
	C202.805908,162.824341 203.648041,161.236267 204.820374,160.152405 
	C205.329910,161.524033 205.519806,163.123871 205.759613,165.144180 
	C191.821609,165.144180 178.388199,165.155243 164.955154,165.091141 
	C164.548950,165.089218 164.146469,164.302155 164.244843,163.467026 
	C164.850784,162.373520 164.954147,161.694138 165.057495,161.014755 
	C165.167831,160.143433 165.278168,159.272125 165.599106,158.143341 
z"/>
<path fill="#2B2B2B" opacity="1.000000" stroke="none" 
	d="
M164.759903,161.131561 
	C164.954147,161.694138 164.850784,162.373520 164.446320,163.043182 
	C164.250916,162.438431 164.356613,161.843399 164.759903,161.131561 
z"/>
<path fill="#F6F6F6" opacity="1.000000" stroke="none" 
	d="
M777.717285,201.893066 
	C772.443909,201.881653 767.410156,202.506653 762.744812,201.471436 
	C757.278564,200.258514 754.781860,194.884979 755.359070,188.438995 
	C755.791809,183.607605 759.330505,179.832825 764.990234,179.422302 
	C772.932068,178.846237 780.924194,178.781418 788.888550,178.904922 
	C790.011414,178.922318 791.877441,181.127640 792.078613,182.512131 
	C793.653564,193.353424 786.392456,199.366501 777.717285,201.893066 
z"/>
<path fill="#272727" opacity="1.000000" stroke="none" 
	d="
M789.182678,176.966431 
	C781.542725,176.968918 774.308899,176.968918 767.075134,176.968918 
	C767.074463,176.642349 767.073730,176.315765 767.073059,175.989197 
	C768.812195,175.989197 770.551331,175.989182 772.290466,175.989182 
	C778.516296,175.989182 784.742126,175.989197 790.967957,175.989197 
	C790.970703,176.192230 790.973389,176.395279 790.976135,176.598312 
	C790.513733,176.720184 790.051270,176.842056 789.182678,176.966431 
z"/>
<path fill="#F7F7F7" opacity="1.000000" stroke="none" 
	d="
M962.971008,162.262833 
	C963.012573,150.137283 972.624268,140.480759 984.383667,140.129303 
	C996.329163,139.772278 1006.176208,150.323334 1004.524780,161.735535 
	C990.378357,162.248077 976.674683,162.255447 962.971008,162.262833 
z"/>
<path fill="#000000" opacity="1.000000" stroke="none" 
	d="
M963.147400,162.616943 
	C976.674683,162.255447 990.378357,162.248077 1004.548096,162.175690 
	C1004.028320,162.742630 1003.047363,163.915329 1002.055786,163.924362 
	C989.652893,164.037628 977.248413,163.994141 964.844727,163.928085 
	C964.336060,163.925385 963.830688,163.304138 963.147400,162.616943 
z"/>
<path fill="#2F2F2F" opacity="1.000000" stroke="none" 
	d="
M661.003784,190.000000 
	C661.003784,200.292618 661.003784,210.085220 661.003784,219.877838 
	C660.767395,219.876526 660.531067,219.875198 660.294678,219.873886 
	C660.294678,187.022995 660.294678,154.172104 660.294678,121.321205 
	C660.531006,121.318443 660.767395,121.315674 661.003723,121.312912 
	C661.003723,144.041946 661.003723,166.770966 661.003784,190.000000 
z"/>
</svg>